<svg width="39" height="38" viewBox="0 0 39 38" fill="none" xmlns="http://www.w3.org/2000/svg">
<rect x="1.365" y="1.365" width="36.27" height="35.27" rx="3.635" stroke="#E9EFF0" stroke-width="2.73"/>
<path d="M33.8341 25.9046C33.8341 25.7845 33.7183 25.7845 33.7183 25.6644C33.2551 24.7034 32.2129 23.5021 30.8233 22.1807C30.1285 21.5801 29.7811 21.0996 29.5495 20.8593C29.2021 20.3788 29.2022 20.0184 29.318 19.5379C29.4338 19.1776 29.8969 18.5769 30.7075 17.4958C31.1707 16.8951 31.4023 16.5348 31.7497 16.1744C33.4867 13.7719 34.2973 12.2102 34.0657 11.4894L33.9499 11.3693C33.8341 11.2492 33.7183 11.1291 33.4867 11.1291C33.2551 11.009 32.9077 11.009 32.5603 11.1291H28.16C28.0442 11.1291 28.0441 11.1291 27.8125 11.1291C27.6967 11.1291 27.581 11.1291 27.581 11.1291H27.4652H27.3493L27.2335 11.2492C27.1177 11.3693 27.1177 11.3693 27.1177 11.4894C26.6545 12.8108 26.0755 13.892 25.4965 15.0932C25.1491 15.6939 24.8018 16.2945 24.4544 16.775C24.107 17.2555 23.8753 17.6159 23.6437 17.8562C23.4121 18.0964 23.1805 18.2165 23.0647 18.4568C22.9489 18.5769 22.7174 18.697 22.7174 18.5769C22.6016 18.5769 22.4857 18.5769 22.4857 18.4568C22.3699 18.3367 22.2542 18.2165 22.1384 18.0964C22.0226 17.9763 22.0225 17.736 21.9067 17.4958C21.9067 17.2555 21.9067 17.0153 21.9067 16.8951C21.9067 16.775 21.9067 16.4146 21.9067 16.1744C21.9067 15.814 21.9067 15.5738 21.9067 15.4536C21.9067 15.0932 21.9067 14.6127 21.9067 14.1322C21.9067 13.6517 21.9067 13.2913 21.9067 13.0511C21.9067 12.8108 21.9067 12.4505 21.9067 12.2102C21.9067 11.8498 21.9067 11.6096 21.9067 11.4894C21.9067 11.3693 21.9067 11.2022 21.9067 11.082C21.7909 10.9619 21.7266 11.0091 21.457 11.0089C19 11.0093 21.457 11.0088 21 11.0089C19.3906 11.0089 19.8106 11.0091 19 11.0091C17.1472 11.0091 16.3484 11.0089 15.6287 11.0089C15.6287 11.0089 15.4 11.0089 14.7272 11.0089C14.4956 11.2492 14.4956 11.3693 14.6114 11.3693C15.1904 11.4895 15.6536 11.7297 15.8852 12.0901L16.001 12.3303C16.1168 12.4505 16.1168 12.6907 16.2326 13.0511C16.3484 13.4115 16.3484 13.7719 16.3484 14.2524C16.3484 14.9731 16.3484 15.6939 16.3484 16.1744C16.3484 16.775 16.2326 17.1354 16.2326 17.4958C16.2326 17.8562 16.1168 18.0964 16.001 18.2165C15.8852 18.4568 15.8852 18.5769 15.7694 18.5769C15.7694 18.5769 15.7694 18.697 15.6536 18.697C15.5378 18.697 15.422 18.8172 15.1904 18.8172C15.0746 18.8172 14.843 18.697 14.7272 18.5769C14.4956 18.4568 14.264 18.2165 14.1482 17.9763C13.9166 17.736 13.685 17.3756 13.4534 16.8951C13.2218 16.4146 12.8744 15.9341 12.6428 15.2134L12.4112 14.7329C12.2954 14.4926 12.0638 14.0121 11.8322 13.4115C11.6006 12.8108 11.369 12.3303 11.1374 11.7297C11.0216 11.4895 10.9058 11.3693 10.79 11.2492H10.6742C10.6742 11.2492 10.5584 11.1291 10.4426 11.1291C10.3268 11.1291 10.211 11.0089 10.0952 11.0089H5.9264C5.4632 11.0089 5.23161 11.1291 5.11581 11.2492L5 11.3693C5 11.3693 5 11.4895 5 11.6096C5 11.7297 5.00001 11.8498 5.11581 12.0901C5.69481 13.5316 6.3896 14.9731 7.0844 16.4146C7.7792 17.736 8.474 18.9373 8.9372 19.7782C9.5162 20.6191 9.97939 21.46 10.5584 22.1807C11.1374 22.9015 11.4848 23.382 11.6006 23.6222C11.8322 23.8625 11.948 23.9826 12.0638 24.1027L12.4112 24.4631C12.6428 24.7034 12.9902 25.0638 13.4534 25.4241C13.9166 25.7845 14.4956 26.1449 15.0746 26.5053C15.6536 26.8656 16.3484 27.1059 17.0432 27.3462C17.8538 27.5864 18.5486 27.7065 19.2434 27.5864H20.9804C21.3278 27.5864 21.5594 27.4663 21.791 27.226L21.9067 27.1059C21.9067 26.9858 22.0226 26.9858 22.0226 26.8656C22.0226 26.7455 22.0226 26.6254 22.0226 26.3851C22.0226 25.9046 22.0226 25.5443 22.1384 25.1839C22.2542 24.8235 22.2542 24.5833 22.37 24.343C22.4858 24.1027 22.6016 23.9826 22.7174 23.8625C22.8332 23.7424 22.949 23.6222 22.949 23.6222H23.0647C23.2963 23.5021 23.6438 23.6222 23.8754 23.8625C24.2228 24.1027 24.5701 24.4631 24.8017 24.8235C25.0333 25.1839 25.3808 25.5443 25.844 26.0248C26.3072 26.5053 26.6546 26.8656 26.8862 26.9858L27.2335 27.226C27.4651 27.3461 27.6968 27.4663 28.0442 27.5864C28.3916 27.7065 28.6231 27.7065 28.8547 27.7065L32.7919 27.5864C33.1393 27.5864 33.4867 27.4663 33.7183 27.3462C33.9499 27.226 34.0657 27.1059 34.0657 26.8656C34.0657 26.7455 34.0657 26.5053 34.0657 26.3851C33.8341 26.1449 33.8341 26.0248 33.8341 25.9046Z" fill="#E9EFF0"/>
</svg>
