<svg width="42" height="38" viewBox="0 0 42 38" fill="none" xmlns="http://www.w3.org/2000/svg">
<g clip-path="url(#clip0_728_503)">
<path fill-rule="evenodd" clip-rule="evenodd" d="M21.2742 31.2143C20.5202 31.2143 19.9082 30.6063 19.9082 29.8571V28.5C19.9082 27.7508 20.5202 27.1428 21.2742 27.1428C22.0282 27.1428 22.6401 27.7508 22.6401 28.5V29.8571C22.6401 30.6063 22.0282 31.2143 21.2742 31.2143Z" fill="#E9EFF0"/>
<path fill-rule="evenodd" clip-rule="evenodd" d="M21.2742 25.1072C20.5202 25.1072 19.9082 24.4992 19.9082 23.7501V13.5715C19.9082 12.8224 20.5202 12.2144 21.2742 12.2144C22.0282 12.2144 22.6401 12.8224 22.6401 13.5715V23.7501C22.6401 24.4992 22.0282 25.1072 21.2742 25.1072Z" fill="#E9EFF0"/>
<path fill-rule="evenodd" clip-rule="evenodd" d="M40.7978 31.9987C42.2676 34.7103 40.2911 38 37.1904 38H5.35816C2.25744 38 0.280827 34.7103 1.75059 31.9987L18.0574 1.90816C18.6953 0.732865 19.9301 0 21.2742 0C22.6183 0 23.8532 0.732865 24.4911 1.90816L40.7978 31.9987ZM37.1904 35.2857C38.223 35.2857 38.8828 34.1891 38.3924 33.2853L22.0856 3.19604C21.9244 2.89883 21.613 2.71429 21.2742 2.71429C20.9355 2.71429 20.624 2.89883 20.4629 3.19604L4.1561 33.2853C3.66573 34.1891 4.3255 35.2857 5.35816 35.2857H37.1904Z" fill="#E9EFF0"/>
</g>
<defs>
<clipPath id="clip0_728_503">
<rect width="40.9787" height="38" fill="white" transform="translate(0.784912)"/>
</clipPath>
</defs>
</svg>
