<svg width="816" height="280" viewBox="0 0 816 280" fill="none" xmlns="http://www.w3.org/2000/svg">
<path d="M138.509 139.372L69.325 179.312L138.509 219.252L207.693 179.312L138.509 139.372Z" fill="#888888"/>
<path d="M69.5848 99.9321L69.5818 179.817L138.763 139.872L138.766 59.987L69.5848 99.9321Z" fill="#767676"/>
<path d="M107.431 158.006L107.428 78.1207L176.609 118.066L176.612 197.951L107.431 158.006Z" fill="#515151"/>
<path d="M119.781 149.845L109.68 132.604L112.256 131.095L114.832 129.585L124.933 146.827L122.357 148.336L119.781 149.845Z" fill="#D2D2D2"/>
<path d="M119.781 138.264C122.572 143.028 122.565 148.219 119.765 149.859C116.966 151.5 112.433 148.968 109.642 144.204C106.851 139.44 106.859 134.248 109.658 132.608C112.458 130.968 116.99 133.5 119.781 138.264Z" fill="#D2D2D2"/>
<path d="M124.844 135.336C127.635 140.1 127.628 145.291 124.828 146.931C122.028 148.572 117.496 146.04 114.705 141.276C111.914 136.512 111.922 131.32 114.721 129.68C117.521 128.04 122.053 130.572 124.844 135.336Z" fill="#D2D2D2"/>
<path d="M118.371 139.028C120.938 143.41 120.936 148.183 118.365 149.689C115.794 151.195 111.629 148.864 109.062 144.482C106.495 140.1 106.498 135.327 109.069 133.821C111.639 132.315 115.804 134.646 118.371 139.028Z" fill="#FAFAFA"/>
<path d="M118.003 139.244C120.42 143.371 120.462 147.84 118.095 149.227C115.728 150.614 111.849 148.392 109.431 144.266C107.013 140.139 106.972 135.669 109.339 134.282C111.706 132.895 115.585 135.117 118.003 139.244Z" fill="#DC7AFF"/>
<path d="M117.749 139.403C120.03 143.297 120.064 147.518 117.824 148.83C115.584 150.142 111.919 148.049 109.638 144.155C107.356 140.261 107.323 136.04 109.562 134.728C111.802 133.416 115.467 135.509 117.749 139.403Z" fill="white"/>
<path d="M117.564 139.511C119.756 143.252 119.8 147.301 117.662 148.553C115.524 149.806 112.014 147.788 109.822 144.047C107.63 140.305 107.586 136.257 109.724 135.004C111.862 133.751 115.372 135.769 117.564 139.511Z" fill="#DC7AFF"/>
<path d="M117.38 139.619C119.482 143.208 119.536 147.084 117.5 148.277C115.463 149.47 112.108 147.528 110.006 143.939C107.903 140.35 107.85 136.474 109.886 135.281C111.922 134.088 115.277 136.03 117.38 139.619Z" fill="white"/>
<path d="M117.196 139.727C119.209 143.163 119.273 146.867 117.338 148C115.404 149.133 112.204 147.267 110.191 143.83C108.178 140.394 108.114 136.69 110.048 135.557C111.983 134.424 115.183 136.291 117.196 139.727Z" fill="#1E1E1E"/>
<path d="M119.995 137.119C121.054 136.924 121.755 135.907 121.561 134.847C121.366 133.788 120.349 133.087 119.289 133.281C118.23 133.476 117.529 134.493 117.724 135.553C117.918 136.612 118.935 137.313 119.995 137.119Z" fill="#E6E6E6"/>
<path d="M122.83 141.754C123.889 141.559 124.59 140.542 124.395 139.482C124.201 138.423 123.184 137.722 122.124 137.916C121.065 138.111 120.364 139.128 120.558 140.188C120.753 141.247 121.77 141.948 122.83 141.754Z" fill="#E6E6E6"/>
<path d="M136.213 126.168L133.977 122.911L118.538 133.508L120.773 136.766L136.213 126.168Z" fill="#E6E6E6"/>
<path d="M136.464 127.374L133.547 124.709L120.916 138.534L123.832 141.199L136.464 127.374Z" fill="#E6E6E6"/>
<path d="M83.6519 141.843L133.379 170.622L133.405 183.608L133.432 196.593L83.7051 167.814L83.6785 154.828L83.6519 141.843Z" fill="#E2E2E2"/>
<path d="M83.6519 141.843L89.9024 138.234L139.629 167.014L133.379 170.622L83.6519 141.843Z" fill="#C5C5C5"/>
<path d="M104.746 158.919C108.286 165.051 108.257 171.696 104.681 173.761C101.104 175.826 95.3349 172.528 91.7945 166.396C88.2541 160.264 88.2833 153.619 91.8598 151.554C95.4363 149.489 101.206 152.786 104.746 158.919Z" fill="#FAFAFA"/>
<path d="M103.169 159.829C106.53 165.65 106.481 171.97 103.06 173.945C99.6391 175.92 94.1415 172.802 90.7809 166.982C87.4202 161.161 87.469 154.841 90.89 152.866C94.311 150.891 99.8086 154.008 103.169 159.829Z" fill="#DC7AFF"/>
<path d="M101.447 160.748C104.538 166.102 104.498 171.912 101.357 173.726C98.2158 175.539 93.1636 172.669 90.0725 167.315C86.9814 161.961 87.0219 156.151 90.163 154.337C93.3041 152.524 98.3563 155.394 101.447 160.748Z" fill="#FAFAFA"/>
<path d="M100.997 161.009C103.908 166.051 103.924 171.493 101.031 173.163C98.1392 174.832 93.4344 172.098 90.523 167.056C87.6116 162.013 87.5961 156.571 90.4884 154.901C93.3807 153.232 98.0855 155.966 100.997 161.009Z" fill="#606060"/>
<path d="M97.6507 163.015C98.6751 164.789 98.6988 166.693 97.7036 167.268C96.7084 167.842 95.0712 166.87 94.0468 165.096C93.0224 163.321 92.9988 161.417 93.994 160.843C94.9892 160.268 96.6264 161.241 97.6507 163.015Z" fill="#DC7AFF"/>
<path d="M97.055 163.284C97.738 164.467 97.7369 165.746 97.0527 166.141C96.3685 166.536 95.2603 165.898 94.5774 164.715C93.8944 163.532 93.8955 162.253 94.5797 161.858C95.2639 161.463 96.3721 162.101 97.055 163.284Z" fill="#FAFAFA"/>
<path d="M96.3794 163.675C96.667 164.173 96.648 164.722 96.337 164.901C96.026 165.081 95.5407 164.823 95.2532 164.325C94.9656 163.827 94.9847 163.277 95.2957 163.098C95.6067 162.918 96.0919 163.177 96.3794 163.675Z" fill="#DC7AFF"/>
<path d="M126.894 172.182C130.434 178.314 130.405 184.959 126.829 187.024C123.252 189.089 117.483 185.791 113.942 179.659C110.402 173.527 110.431 166.882 114.008 164.817C117.584 162.752 123.354 166.05 126.894 172.182Z" fill="#FAFAFA"/>
<path d="M125.317 173.092C128.678 178.913 128.629 185.233 125.208 187.208C121.787 189.183 116.29 186.065 112.929 180.245C109.568 174.424 109.617 168.104 113.038 166.129C116.459 164.154 121.957 167.271 125.317 173.092Z" fill="#DC7AFF"/>
<path d="M123.596 174.011C126.687 179.365 126.646 185.175 123.505 186.989C120.364 188.802 115.312 185.932 112.221 180.578C109.13 175.224 109.17 169.414 112.311 167.6C115.453 165.787 120.505 168.657 123.596 174.011Z" fill="#FAFAFA"/>
<path d="M123.145 174.272C126.057 179.314 126.072 184.756 123.18 186.426C120.288 188.095 115.583 185.361 112.672 180.319C109.76 175.276 109.745 169.834 112.637 168.164C115.529 166.495 120.234 169.229 123.145 174.272Z" fill="#606060"/>
<path d="M119.799 176.279C120.823 178.053 120.847 179.957 119.852 180.532C118.856 181.106 117.219 180.134 116.195 178.36C115.17 176.585 115.147 174.681 116.142 174.107C117.137 173.532 118.774 174.505 119.799 176.279Z" fill="#DC7AFF"/>
<path d="M119.203 176.547C119.886 177.73 119.885 179.009 119.201 179.404C118.517 179.799 117.408 179.161 116.726 177.978C116.043 176.795 116.044 175.516 116.728 175.121C117.412 174.726 118.52 175.364 119.203 176.547Z" fill="#FAFAFA"/>
<path d="M118.528 176.938C118.815 177.436 118.796 177.985 118.485 178.164C118.174 178.344 117.689 178.086 117.402 177.588C117.114 177.09 117.133 176.54 117.444 176.361C117.755 176.181 118.24 176.44 118.528 176.938Z" fill="#DC7AFF"/>
<mask id="mask0_0_1" style="mask-type:alpha" maskUnits="userSpaceOnUse" x="69" y="99" width="70" height="121">
<path d="M69.3282 179.853L69.3252 99.9685L138.506 139.914L138.509 219.798L69.3282 179.853Z" fill="#232323" fill-opacity="0.58"/>
</mask>
<g mask="url(#mask0_0_1)">
<path d="M69.3282 179.853L69.3252 99.9685L138.506 139.914L138.509 219.798L69.3282 179.853Z" fill="#232323" fill-opacity="0.49"/>
<path d="M52.6223 105.655L45.5271 109.751L119.783 238.365L126.878 234.269L52.6223 105.655Z" fill="white" fill-opacity="0.24"/>
<path d="M49.8598 88.2194L46.8242 89.972L121.08 218.586L124.115 216.834L49.8598 88.2194Z" fill="white" fill-opacity="0.24"/>
<path d="M78.6643 64.0762L75.6287 65.8288L149.884 194.443L152.92 192.69L78.6643 64.0762Z" fill="white" fill-opacity="0.24"/>
</g>
<path fill-rule="evenodd" clip-rule="evenodd" d="M69.3382 179.666L69.3352 99.7812L138.516 139.726L138.519 219.611L69.3382 179.666ZM133.314 143.225L125.805 138.889L118.295 134.553L103.276 125.881L88.2562 117.208L80.7465 112.872L73.2368 108.536L73.2371 116.896L73.2374 125.256L73.238 141.976L73.2384 150.336L73.2387 158.696L73.239 167.056L73.2393 175.416L80.749 179.752L88.2587 184.089L103.278 192.761L118.298 201.433L125.807 205.769L133.317 210.105V201.745L133.316 193.385V185.025V176.665L133.315 168.305V159.945V151.585L133.314 143.225Z" fill="#C5C5C5"/>
<path d="M73.2371 116.896L73.2368 108.536L80.7465 112.872L73.2371 116.896Z" fill="#C5C5C5"/>
<path d="M125.805 138.889L133.314 143.225L133.315 151.585L125.805 138.889Z" fill="#C5C5C5"/>
<path d="M73.2393 175.416L73.239 167.056L80.749 179.752L73.2393 175.416Z" fill="#C5C5C5"/>
<path d="M133.317 201.745V210.105L125.807 205.769L133.317 201.745Z" fill="#C5C5C5"/>
<path d="M138.509 139.726L138.506 219.611L207.687 179.666L207.69 99.781L138.509 139.726Z" fill="#FAFAFA"/>
<path d="M138.509 59.9147L69.325 99.8545L138.509 139.794L207.693 99.8545L138.509 59.9147Z" fill="#E2E2E2"/>
<path d="M258.008 138C256.664 138 255.992 137.328 255.992 135.984V107.472C255.992 106.128 256.664 105.456 258.008 105.456H270.536C273.08 105.456 275.032 106.128 276.392 107.472C277.768 108.816 278.456 110.736 278.456 113.232V114.528C278.456 116.688 277.776 118.36 276.416 119.544C278.96 120.968 280.232 123.568 280.232 127.344V128.976C280.232 131.92 279.448 134.16 277.88 135.696C276.328 137.232 274.088 138 271.16 138H258.008ZM260.024 133.968H271.16C272.968 133.968 274.256 133.584 275.024 132.816C275.808 132.032 276.2 130.752 276.2 128.976V127.344C276.2 125.568 275.824 124.304 275.072 123.552C274.32 122.784 273.016 122.4 271.16 122.4H260.024V133.968ZM260.024 118.368H271.4C272.568 118.368 273.36 118.008 273.776 117.288C274.208 116.568 274.424 115.648 274.424 114.528V113.232C274.424 111.84 274.136 110.872 273.56 110.328C272.984 109.768 271.976 109.488 270.536 109.488H260.024V118.368ZM298.801 138C295.137 138 292.425 137.128 290.665 135.384C288.921 133.624 288.049 130.912 288.049 127.248V107.472C288.049 106.8 288.217 106.296 288.553 105.96C288.889 105.624 289.393 105.456 290.065 105.456C290.737 105.456 291.241 105.624 291.577 105.96C291.913 106.296 292.081 106.8 292.081 107.472V127.248C292.081 128.96 292.281 130.304 292.681 131.28C293.097 132.256 293.793 132.952 294.769 133.368C295.745 133.768 297.089 133.968 298.801 133.968H304.561C306.273 133.968 307.617 133.768 308.593 133.368C309.569 132.952 310.257 132.256 310.657 131.28C311.073 130.304 311.281 128.96 311.281 127.248V107.472C311.281 106.8 311.449 106.296 311.785 105.96C312.121 105.624 312.625 105.456 313.297 105.456C313.969 105.456 314.473 105.624 314.809 105.96C315.145 106.296 315.313 106.8 315.313 107.472V127.248C315.313 130.912 314.441 133.624 312.697 135.384C310.953 137.128 308.241 138 304.561 138H298.801ZM327.055 138C326.367 138 325.855 137.84 325.519 137.52C325.199 137.184 325.039 136.672 325.039 135.984V107.52C325.039 106.816 325.199 106.304 325.519 105.984C325.855 105.664 326.367 105.504 327.055 105.504C327.759 105.504 328.271 105.664 328.591 105.984C328.911 106.304 329.071 106.816 329.071 107.52V135.984C329.071 136.672 328.911 137.184 328.591 137.52C328.271 137.84 327.759 138 327.055 138ZM341.071 138C339.727 138 339.055 137.328 339.055 135.984V107.472C339.055 106.128 339.727 105.456 341.071 105.456C342.415 105.456 343.087 106.128 343.087 107.472V133.968H356.383C357.727 133.968 358.399 134.64 358.399 135.984C358.399 137.328 357.727 138 356.383 138H341.071ZM367.039 138C365.695 138 365.023 137.328 365.023 135.984V107.472C365.023 106.128 365.695 105.456 367.039 105.456H378.607C382.783 105.456 385.855 106.448 387.823 108.432C389.807 110.4 390.799 113.472 390.799 117.648V125.808C390.799 129.984 389.815 133.064 387.847 135.048C385.895 137.016 382.815 138 378.607 138H367.039ZM369.055 133.968H378.607C380.655 133.968 382.271 133.72 383.455 133.224C384.655 132.712 385.503 131.864 385.999 130.68C386.511 129.48 386.767 127.856 386.767 125.808V117.648C386.767 115.616 386.511 114.008 385.999 112.824C385.503 111.624 384.655 110.768 383.455 110.256C382.271 109.744 380.655 109.488 378.607 109.488H369.055V133.968ZM416.727 138C415.383 138 414.711 137.328 414.711 135.984V107.472C414.711 106.128 415.383 105.456 416.727 105.456H429.255C431.799 105.456 433.751 106.128 435.111 107.472C436.487 108.816 437.175 110.736 437.175 113.232V114.528C437.175 116.688 436.495 118.36 435.135 119.544C437.679 120.968 438.951 123.568 438.951 127.344V128.976C438.951 131.92 438.167 134.16 436.599 135.696C435.047 137.232 432.807 138 429.879 138H416.727ZM418.743 133.968H429.879C431.687 133.968 432.975 133.584 433.743 132.816C434.527 132.032 434.919 130.752 434.919 128.976V127.344C434.919 125.568 434.543 124.304 433.791 123.552C433.039 122.784 431.735 122.4 429.879 122.4H418.743V133.968ZM418.743 118.368H430.119C431.287 118.368 432.079 118.008 432.495 117.288C432.927 116.568 433.143 115.648 433.143 114.528V113.232C433.143 111.84 432.855 110.872 432.279 110.328C431.703 109.768 430.695 109.488 429.255 109.488H418.743V118.368ZM456.608 138C452.944 138 450.232 137.128 448.472 135.384C446.728 133.624 445.856 130.912 445.856 127.248V116.16C445.856 112.464 446.736 109.752 448.496 108.024C450.256 106.28 452.96 105.424 456.608 105.456H462.368C466.048 105.456 468.76 106.328 470.504 108.072C472.248 109.816 473.12 112.528 473.12 116.208V127.248C473.12 130.912 472.248 133.624 470.504 135.384C468.76 137.128 466.048 138 462.368 138H456.608ZM456.608 133.968H462.368C464.08 133.968 465.424 133.768 466.4 133.368C467.376 132.952 468.064 132.256 468.464 131.28C468.88 130.304 469.088 128.96 469.088 127.248V116.208C469.088 114.512 468.88 113.176 468.464 112.2C468.064 111.224 467.376 110.528 466.4 110.112C465.424 109.696 464.08 109.488 462.368 109.488H456.608C454.912 109.472 453.576 109.664 452.6 110.064C451.624 110.464 450.928 111.152 450.512 112.128C450.096 113.104 449.888 114.448 449.888 116.16V127.248C449.888 128.96 450.088 130.304 450.488 131.28C450.904 132.256 451.6 132.952 452.576 133.368C453.552 133.768 454.896 133.968 456.608 133.968ZM480.128 137.568C479.056 136.832 478.896 135.888 479.648 134.736L488.432 121.776L479.168 108.72C478.448 107.664 478.624 106.72 479.696 105.888C480.8 105.136 481.728 105.312 482.48 106.416L491.072 118.464L499.712 106.416C500.544 105.344 501.472 105.2 502.496 105.984C503.584 106.784 503.744 107.712 502.976 108.768L493.52 121.92L502.592 134.688C503.344 135.792 503.168 136.752 502.064 137.568C500.96 138.32 500.032 138.144 499.28 137.04L490.928 125.28L482.96 137.088C482.224 138.128 481.28 138.288 480.128 137.568Z" fill="white"/>
<path d="M268.964 184.468C267.956 184.468 267.452 183.88 267.452 182.704V170.212H260.324C259.52 170.212 258.986 170.308 258.722 170.5C258.47 170.692 258.344 171.088 258.344 171.688V179.32C258.344 180.472 258.188 181.414 257.876 182.146C257.564 182.866 257.078 183.4 256.418 183.748C255.758 184.084 254.9 184.252 253.844 184.252C253.22 184.252 252.71 184.138 252.314 183.91C251.918 183.682 251.72 183.28 251.72 182.704C251.72 181.696 252.356 181.192 253.628 181.192C254.276 181.192 254.72 181.09 254.96 180.886C255.2 180.682 255.32 180.304 255.32 179.752V172.084C255.32 170.812 255.458 169.822 255.734 169.114C256.01 168.406 256.49 167.908 257.174 167.62C257.87 167.332 258.824 167.188 260.036 167.188H270.476V182.668C270.476 183.868 269.972 184.468 268.964 184.468ZM279.488 191.596C278.54 191.596 277.754 191.434 277.13 191.11C276.518 190.798 276.062 190.312 275.762 189.652C275.462 188.992 275.312 188.164 275.312 187.168C275.312 186.52 275.438 186.022 275.69 185.674C275.954 185.326 276.332 185.152 276.824 185.152C277.328 185.152 277.706 185.302 277.958 185.602C278.21 185.902 278.336 186.34 278.336 186.916C278.336 187.588 278.426 188.032 278.606 188.248C278.798 188.464 279.176 188.572 279.74 188.572H290.864C291.344 188.572 291.644 188.506 291.764 188.374C291.884 188.242 291.944 187.9 291.944 187.348V182.632C290.444 183.688 288.344 184.216 285.644 184.216H284.6C282.308 184.216 280.478 184.006 279.11 183.586C277.754 183.166 276.782 182.476 276.194 181.516C275.606 180.544 275.312 179.236 275.312 177.592V168.664C275.312 167.512 275.816 166.936 276.824 166.936C277.832 166.936 278.336 167.512 278.336 168.664V177.484C278.336 178.54 278.48 179.338 278.768 179.878C279.068 180.406 279.662 180.76 280.55 180.94C281.45 181.108 282.8 181.192 284.6 181.192H285.644C287.756 181.192 289.334 180.736 290.378 179.824C291.422 178.9 291.944 177.508 291.944 175.648V168.664C291.944 167.512 292.448 166.936 293.456 166.936C294.464 166.936 294.968 167.512 294.968 168.664V186.772C294.968 188.524 294.68 189.766 294.104 190.498C293.528 191.23 292.532 191.596 291.116 191.596H279.488ZM316.125 184.468C315.093 184.468 314.577 183.892 314.577 182.74V178.384C313.113 179.44 311.229 179.968 308.925 179.968H307.665C305.565 179.968 303.879 179.752 302.607 179.32C301.347 178.876 300.435 178.162 299.871 177.178C299.307 176.182 299.025 174.868 299.025 173.236V168.664C299.025 167.512 299.529 166.936 300.537 166.936C301.545 166.936 302.049 167.512 302.049 168.664V173.128C302.049 174.196 302.193 175.006 302.481 175.558C302.769 176.098 303.315 176.464 304.119 176.656C304.923 176.848 306.105 176.944 307.665 176.944H308.925C310.821 176.944 312.237 176.476 313.173 175.54C314.109 174.604 314.577 173.188 314.577 171.292V168.664C314.577 167.512 315.081 166.936 316.089 166.936C317.097 166.936 317.601 167.512 317.601 168.664V182.704C317.601 183.88 317.109 184.468 316.125 184.468ZM322.602 184.216V168.664C322.602 167.512 323.106 166.936 324.114 166.936C325.122 166.936 325.626 167.512 325.626 168.664V181.192H330.774V168.664C330.774 167.512 331.278 166.936 332.286 166.936C333.294 166.936 333.798 167.512 333.798 168.664V181.192H338.946V168.664C338.946 167.512 339.45 166.936 340.458 166.936C341.466 166.936 341.97 167.512 341.97 168.664V184.216H322.602ZM363.704 184.468C362.696 184.468 362.192 183.844 362.192 182.596V171.472L349.826 184.216H347V168.7C347 167.524 347.504 166.936 348.512 166.936C349.52 166.936 350.024 167.56 350.024 168.808V180.076L362.498 167.188H365.216V182.704C365.216 183.88 364.712 184.468 363.704 184.468ZM379.023 184.216C376.719 184.216 374.883 184.012 373.515 183.604C372.159 183.184 371.181 182.494 370.581 181.534C369.993 180.562 369.699 179.248 369.699 177.592V173.812C369.699 172.156 369.993 170.848 370.581 169.888C371.181 168.916 372.159 168.226 373.515 167.818C374.883 167.398 376.719 167.188 379.023 167.188H380.067C382.371 167.188 384.201 167.398 385.557 167.818C386.913 168.238 387.885 168.934 388.473 169.906C389.061 170.866 389.355 172.168 389.355 173.812V175.756H372.723V177.484C372.723 178.54 372.867 179.338 373.155 179.878C373.455 180.406 374.055 180.76 374.955 180.94C375.855 181.108 377.211 181.192 379.023 181.192H384.567C385.131 181.192 385.503 181.09 385.683 180.886C385.875 180.682 385.971 180.28 385.971 179.68C385.971 179.08 386.103 178.612 386.367 178.276C386.643 177.94 387.021 177.772 387.501 177.772C387.993 177.784 388.365 177.97 388.617 178.33C388.869 178.678 388.995 179.176 388.995 179.824C388.995 180.82 388.845 181.648 388.545 182.308C388.245 182.956 387.783 183.436 387.159 183.748C386.547 184.06 385.767 184.216 384.819 184.216H379.023ZM372.741 172.732H386.313C386.181 171.676 385.755 171.004 385.035 170.716C384.603 170.548 383.961 170.422 383.109 170.338C382.269 170.254 381.255 170.212 380.067 170.212H379.023C377.727 170.212 376.653 170.26 375.801 170.356C374.961 170.44 374.343 170.572 373.947 170.752C373.227 171.052 372.825 171.712 372.741 172.732ZM406.52 184.468C405.512 184.468 405.008 183.892 405.008 182.74V167.188H423.224V182.74C423.224 183.892 422.72 184.468 421.712 184.468C420.704 184.468 420.2 183.892 420.2 182.74V170.212H408.032V182.74C408.032 183.892 407.528 184.468 406.52 184.468ZM429.687 184.468C429.243 184.468 428.883 184.312 428.607 184C428.343 183.688 428.211 183.292 428.211 182.812V168.592C428.211 168.088 428.355 167.686 428.643 167.386C428.931 167.086 429.315 166.936 429.795 166.936C430.227 166.936 430.575 167.092 430.839 167.404C431.103 167.704 431.235 168.1 431.235 168.592V174.172H434.691C434.931 174.172 435.219 173.992 435.555 173.632C435.903 173.272 436.395 172.618 437.031 171.67C437.523 170.962 438.081 170.248 438.705 169.528C439.341 168.808 440.151 168.19 441.135 167.674C442.131 167.158 443.235 166.9 444.447 166.9C445.011 166.9 445.461 167.032 445.797 167.296C446.145 167.56 446.319 167.932 446.319 168.412C446.319 168.916 446.157 169.294 445.833 169.546C445.521 169.798 445.059 169.924 444.447 169.924C443.823 169.924 443.211 170.164 442.611 170.644C442.023 171.124 441.303 171.97 440.451 173.182C440.235 173.482 440.025 173.764 439.821 174.028C439.629 174.28 439.443 174.514 439.263 174.73C439.095 174.934 438.927 175.12 438.759 175.288C439.695 175.696 440.541 176.26 441.297 176.98C442.065 177.7 442.581 178.432 442.845 179.176C443.133 179.92 443.415 180.484 443.691 180.868C443.967 181.252 444.219 181.444 444.447 181.444C445.011 181.444 445.461 181.582 445.797 181.858C446.145 182.134 446.319 182.5 446.319 182.956C446.319 183.964 445.695 184.468 444.447 184.468C443.607 184.468 442.881 184.342 442.269 184.09C441.657 183.838 441.171 183.454 440.811 182.938C440.451 182.446 440.157 181.966 439.929 181.498C439.701 181.03 439.437 180.556 439.137 180.076C438.837 179.584 438.399 179.086 437.823 178.582C436.827 177.658 435.111 177.196 432.675 177.196H431.235V182.848C431.235 183.34 431.097 183.73 430.821 184.018C430.545 184.318 430.167 184.468 429.687 184.468ZM460.821 187.528C459.813 187.528 459.309 186.916 459.309 185.692V184C459.309 182.092 460.197 181.156 461.973 181.192H462.909L461.289 181.912C463.917 177.88 465.213 172.972 465.177 167.188H476.517V181.192H477.489C479.097 181.192 479.901 182.128 479.901 184V185.692C479.901 186.916 479.397 187.528 478.389 187.528C477.381 187.528 476.877 186.916 476.877 185.692V184.216H462.333V185.692C462.333 186.916 461.829 187.528 460.821 187.528ZM465.195 181.192H473.385V170.212H468.453C468.309 174.136 467.223 177.796 465.195 181.192ZM491.98 184.216C489.676 184.216 487.84 184.012 486.472 183.604C485.116 183.184 484.138 182.494 483.538 181.534C482.95 180.562 482.656 179.248 482.656 177.592V173.812C482.656 172.156 482.95 170.848 483.538 169.888C484.138 168.916 485.116 168.226 486.472 167.818C487.84 167.398 489.676 167.188 491.98 167.188H493.024C495.328 167.188 497.158 167.398 498.514 167.818C499.87 168.238 500.842 168.934 501.43 169.906C502.018 170.866 502.312 172.168 502.312 173.812V177.592C502.312 179.236 502.018 180.544 501.43 181.516C500.842 182.476 499.87 183.166 498.514 183.586C497.158 184.006 495.328 184.216 493.024 184.216H491.98ZM491.98 181.192H493.024C494.824 181.192 496.168 181.108 497.056 180.94C497.956 180.76 498.55 180.406 498.838 179.878C499.138 179.338 499.288 178.54 499.288 177.484V173.92C499.288 172.852 499.138 172.054 498.838 171.526C498.55 170.998 497.956 170.65 497.056 170.482C496.168 170.302 494.824 170.212 493.024 170.212H491.98C490.168 170.212 488.812 170.302 487.912 170.482C487.012 170.65 486.412 170.998 486.112 171.526C485.824 172.054 485.68 172.852 485.68 173.92V177.484C485.68 178.54 485.824 179.338 486.112 179.878C486.412 180.406 487.012 180.76 487.912 180.94C488.812 181.108 490.168 181.192 491.98 181.192ZM515.605 184.216C513.301 184.216 511.465 184.012 510.097 183.604C508.741 183.184 507.763 182.494 507.163 181.534C506.575 180.562 506.281 179.248 506.281 177.592V173.812C506.281 172.156 506.575 170.848 507.163 169.888C507.763 168.916 508.741 168.226 510.097 167.818C511.465 167.398 513.301 167.188 515.605 167.188H520.681C521.629 167.188 522.409 167.35 523.021 167.674C523.645 167.986 524.107 168.472 524.407 169.132C524.707 169.78 524.857 170.608 524.857 171.616C524.857 172.264 524.725 172.762 524.461 173.11C524.209 173.458 523.837 173.632 523.345 173.632C522.865 173.632 522.493 173.47 522.229 173.146C521.965 172.81 521.833 172.348 521.833 171.76C521.833 171.16 521.737 170.752 521.545 170.536C521.353 170.32 520.981 170.212 520.429 170.212H515.605C513.793 170.212 512.437 170.302 511.537 170.482C510.637 170.65 510.037 170.998 509.737 171.526C509.449 172.054 509.305 172.852 509.305 173.92V177.484C509.305 178.54 509.449 179.338 509.737 179.878C510.037 180.406 510.637 180.76 511.537 180.94C512.437 181.108 513.793 181.192 515.605 181.192H520.429C520.993 181.192 521.365 181.09 521.545 180.886C521.737 180.682 521.833 180.28 521.833 179.68C521.833 179.116 521.959 178.66 522.211 178.312C522.463 177.952 522.829 177.772 523.309 177.772C523.777 177.772 524.149 177.946 524.425 178.294C524.713 178.63 524.857 179.14 524.857 179.824C524.857 180.82 524.707 181.648 524.407 182.308C524.107 182.956 523.645 183.436 523.021 183.748C522.409 184.06 521.629 184.216 520.681 184.216H515.605ZM535.838 184.468C534.734 184.468 534.182 183.928 534.182 182.848V170.212H528.998C527.822 170.212 527.234 169.708 527.234 168.7C527.234 167.692 527.822 167.188 528.998 167.188H542.714C543.89 167.188 544.478 167.692 544.478 168.7C544.478 169.708 543.89 170.212 542.714 170.212H537.566V182.848C537.566 183.34 537.41 183.73 537.098 184.018C536.786 184.318 536.366 184.468 535.838 184.468ZM551.386 191.596C550.438 191.596 549.652 191.434 549.028 191.11C548.416 190.798 547.96 190.312 547.66 189.652C547.36 188.992 547.21 188.164 547.21 187.168C547.21 186.52 547.336 186.022 547.588 185.674C547.852 185.326 548.23 185.152 548.722 185.152C549.226 185.152 549.604 185.302 549.856 185.602C550.108 185.902 550.234 186.34 550.234 186.916C550.234 187.588 550.324 188.032 550.504 188.248C550.696 188.464 551.074 188.572 551.638 188.572H562.762C563.242 188.572 563.542 188.506 563.662 188.374C563.782 188.242 563.842 187.9 563.842 187.348V182.632C562.342 183.688 560.242 184.216 557.542 184.216H556.498C554.206 184.216 552.376 184.006 551.008 183.586C549.652 183.166 548.68 182.476 548.092 181.516C547.504 180.544 547.21 179.236 547.21 177.592V168.664C547.21 167.512 547.714 166.936 548.722 166.936C549.73 166.936 550.234 167.512 550.234 168.664V177.484C550.234 178.54 550.378 179.338 550.666 179.878C550.966 180.406 551.56 180.76 552.448 180.94C553.348 181.108 554.698 181.192 556.498 181.192H557.542C559.654 181.192 561.232 180.736 562.276 179.824C563.32 178.9 563.842 177.508 563.842 175.648V168.664C563.842 167.512 564.346 166.936 565.354 166.936C566.362 166.936 566.866 167.512 566.866 168.664V186.772C566.866 188.524 566.578 189.766 566.002 190.498C565.426 191.23 564.43 191.596 563.014 191.596H551.386ZM573.372 184.468C572.364 184.468 571.86 183.892 571.86 182.74V167.188H590.076V182.74C590.076 183.892 589.572 184.468 588.564 184.468C587.556 184.468 587.052 183.892 587.052 182.74V170.212H574.884V182.74C574.884 183.892 574.38 184.468 573.372 184.468ZM596.574 184.468C595.566 184.468 595.062 183.892 595.062 182.74V168.7C595.062 167.524 595.542 166.936 596.502 166.936C597.558 166.936 598.086 167.524 598.086 168.7V173.704H610.254V168.7C610.254 167.524 610.758 166.936 611.766 166.936C612.774 166.936 613.278 167.524 613.278 168.7V182.74C613.278 183.892 612.774 184.468 611.766 184.468C610.758 184.468 610.254 183.892 610.254 182.74V176.728H598.086V182.74C598.086 183.892 597.582 184.468 596.574 184.468ZM618.266 184.216V168.7C618.266 167.524 618.77 166.936 619.778 166.936C620.786 166.936 621.29 167.524 621.29 168.7V173.92H629.03C630.41 173.92 631.574 174.124 632.522 174.532C633.482 174.928 634.214 175.51 634.718 176.278C635.222 177.034 635.474 177.964 635.474 179.068C635.474 180.16 635.222 181.09 634.718 181.858C634.226 182.614 633.5 183.19 632.54 183.586C631.58 183.982 630.41 184.192 629.03 184.216H618.266ZM621.29 181.192H628.706C629.678 181.192 630.542 181.072 631.298 180.832C632.066 180.58 632.45 180.052 632.45 179.248C632.45 178.588 632.306 178.096 632.018 177.772C631.742 177.436 631.322 177.214 630.758 177.106C630.206 176.998 629.522 176.944 628.706 176.944H621.29V181.192ZM637.922 185.008C636.938 185.008 636.446 184.432 636.446 183.28V168.16C636.446 167.62 636.578 167.194 636.842 166.882C637.118 166.558 637.49 166.396 637.958 166.396C638.426 166.396 638.792 166.558 639.056 166.882C639.332 167.194 639.47 167.62 639.47 168.16V183.28C639.47 184.432 638.954 185.008 637.922 185.008ZM657.183 184.468C656.739 184.468 656.379 184.312 656.103 184C655.839 183.688 655.707 183.292 655.707 182.812V168.592C655.707 168.088 655.851 167.686 656.139 167.386C656.427 167.086 656.811 166.936 657.291 166.936C657.723 166.936 658.071 167.092 658.335 167.404C658.599 167.704 658.731 168.1 658.731 168.592V174.172H662.187C662.427 174.172 662.715 173.992 663.051 173.632C663.399 173.272 663.891 172.618 664.527 171.67C665.019 170.962 665.577 170.248 666.201 169.528C666.837 168.808 667.647 168.19 668.631 167.674C669.627 167.158 670.731 166.9 671.943 166.9C672.507 166.9 672.957 167.032 673.293 167.296C673.641 167.56 673.815 167.932 673.815 168.412C673.815 168.916 673.653 169.294 673.329 169.546C673.017 169.798 672.555 169.924 671.943 169.924C671.319 169.924 670.707 170.164 670.107 170.644C669.519 171.124 668.799 171.97 667.947 173.182C667.731 173.482 667.521 173.764 667.317 174.028C667.125 174.28 666.939 174.514 666.759 174.73C666.591 174.934 666.423 175.12 666.255 175.288C667.191 175.696 668.037 176.26 668.793 176.98C669.561 177.7 670.077 178.432 670.341 179.176C670.629 179.92 670.911 180.484 671.187 180.868C671.463 181.252 671.715 181.444 671.943 181.444C672.507 181.444 672.957 181.582 673.293 181.858C673.641 182.134 673.815 182.5 673.815 182.956C673.815 183.964 673.191 184.468 671.943 184.468C671.103 184.468 670.377 184.342 669.765 184.09C669.153 183.838 668.667 183.454 668.307 182.938C667.947 182.446 667.653 181.966 667.425 181.498C667.197 181.03 666.933 180.556 666.633 180.076C666.333 179.584 665.895 179.086 665.319 178.582C664.323 177.658 662.607 177.196 660.171 177.196H658.731V182.848C658.731 183.34 658.593 183.73 658.317 184.018C658.041 184.318 657.663 184.468 657.183 184.468ZM692.621 184.468C692.321 184.468 692.075 184.378 691.883 184.198C691.691 184.03 691.547 183.664 691.451 183.1C691.367 182.536 691.325 181.672 691.325 180.508L691.721 181.444C690.965 182.488 690.017 183.214 688.877 183.622C687.749 184.018 686.417 184.216 684.881 184.216H681.533C680.225 184.216 679.157 183.784 678.329 182.92C677.513 182.044 677.105 180.724 677.105 178.96C677.105 177.856 677.285 176.926 677.645 176.17C678.005 175.402 678.563 174.784 679.319 174.316C680.075 173.836 681.041 173.488 682.217 173.272C683.393 173.056 684.797 172.948 686.429 172.948H692.513L691.145 174.172V171.508C691.145 170.98 691.055 170.632 690.875 170.464C690.707 170.296 690.329 170.212 689.741 170.212H684.665C683.453 170.212 682.523 170.242 681.875 170.302C681.239 170.362 680.795 170.482 680.543 170.662C680.291 170.83 680.153 171.076 680.129 171.4C680.081 172.024 679.967 172.486 679.787 172.786C679.607 173.086 679.217 173.236 678.617 173.236C677.609 173.236 677.105 172.588 677.105 171.292C677.105 169.864 677.699 168.826 678.887 168.178C680.075 167.518 681.917 167.188 684.413 167.188H689.993C691.529 167.188 692.609 167.554 693.233 168.286C693.857 169.018 694.169 170.284 694.169 172.084V182.74C694.169 183.892 693.653 184.468 692.621 184.468ZM681.641 181.336H684.881C687.149 181.336 688.757 180.88 689.705 179.968C690.665 179.044 691.145 177.592 691.145 175.612L691.361 175.828H686.429C684.845 175.828 683.591 175.906 682.667 176.062C681.755 176.206 681.101 176.494 680.705 176.926C680.321 177.358 680.129 178 680.129 178.852C680.129 179.62 680.261 180.226 680.525 180.67C680.801 181.114 681.173 181.336 681.641 181.336ZM699.74 184.468C698.492 184.468 697.868 183.964 697.868 182.956C697.868 181.948 698.492 181.444 699.74 181.444C699.896 181.444 700.04 181.336 700.172 181.12C700.304 180.904 700.448 180.502 700.604 179.914C700.88 178.858 701.27 177.934 701.774 177.142C702.278 176.35 703.01 175.726 703.97 175.27C703.502 174.61 702.89 173.458 702.134 171.814C701.882 171.25 701.534 170.794 701.09 170.446C700.658 170.098 700.232 169.924 699.812 169.924C699.224 169.924 698.75 169.792 698.39 169.528C698.042 169.252 697.868 168.88 697.868 168.412C697.868 167.404 698.468 166.9 699.668 166.9C700.664 166.9 701.564 167.068 702.368 167.404C703.184 167.74 703.844 168.226 704.348 168.862C705.128 169.87 705.77 171.052 706.274 172.408C706.478 172.972 706.688 173.404 706.904 173.704C707.12 173.992 707.336 174.148 707.552 174.172H708.668V168.592C708.668 168.1 708.818 167.704 709.118 167.404C709.43 167.092 709.844 166.936 710.36 166.936C710.816 166.936 711.188 167.092 711.476 167.404C711.764 167.716 711.896 168.112 711.872 168.592V174.172H713.006C713.222 174.148 713.432 173.998 713.636 173.722C713.852 173.434 714.074 172.996 714.302 172.408C714.518 171.796 714.794 171.196 715.13 170.608C715.466 170.008 715.85 169.432 716.282 168.88C716.798 168.256 717.464 167.77 718.28 167.422C719.108 167.074 719.996 166.9 720.944 166.9C722.12 166.9 722.708 167.404 722.708 168.412C722.708 169.42 722.084 169.924 720.836 169.924C720.368 169.924 719.912 170.092 719.468 170.428C719.036 170.764 718.694 171.214 718.442 171.778C717.71 173.374 717.086 174.526 716.57 175.234C717.602 175.726 718.376 176.368 718.892 177.16C719.408 177.94 719.78 178.858 720.008 179.914C720.14 180.418 720.26 180.802 720.368 181.066C720.476 181.318 720.68 181.444 720.98 181.444C721.472 181.444 721.88 181.588 722.204 181.876C722.54 182.164 722.708 182.524 722.708 182.956C722.708 183.544 722.51 183.94 722.114 184.144C721.73 184.36 721.268 184.468 720.728 184.468C719.996 184.468 719.366 184.33 718.838 184.054C718.322 183.79 717.92 183.4 717.632 182.884C717.308 182.344 717.032 181.63 716.804 180.742C716.588 179.854 716.216 179.044 715.688 178.312C715.004 177.34 713.732 176.794 711.872 176.674V182.74C711.872 183.244 711.722 183.658 711.422 183.982C711.134 184.306 710.744 184.468 710.252 184.468C709.796 184.468 709.418 184.306 709.118 183.982C708.818 183.658 708.668 183.244 708.668 182.74V176.674C707.684 176.734 706.886 176.902 706.274 177.178C705.674 177.442 705.2 177.772 704.852 178.168C704.408 178.66 704.096 179.218 703.916 179.842C703.748 180.466 703.592 181.084 703.448 181.696C703.316 182.308 703.088 182.836 702.764 183.28C702.512 183.64 702.146 183.928 701.666 184.144C701.198 184.36 700.556 184.468 699.74 184.468ZM725.935 187.528C724.927 187.528 724.423 186.916 724.423 185.692V184C724.423 182.092 725.311 181.156 727.087 181.192H728.023L726.403 181.912C729.031 177.88 730.327 172.972 730.291 167.188H741.631V181.192H742.603C744.211 181.192 745.015 182.128 745.015 184V185.692C745.015 186.916 744.511 187.528 743.503 187.528C742.495 187.528 741.991 186.916 741.991 185.692V184.216H727.447V185.692C727.447 186.916 726.943 187.528 725.935 187.528ZM730.309 181.192H738.499V170.212H733.566C733.423 174.136 732.337 177.796 730.309 181.192ZM757.093 184.216C754.789 184.216 752.953 184.012 751.585 183.604C750.229 183.184 749.251 182.494 748.651 181.534C748.063 180.562 747.769 179.248 747.769 177.592V173.812C747.769 172.156 748.063 170.848 748.651 169.888C749.251 168.916 750.229 168.226 751.585 167.818C752.953 167.398 754.789 167.188 757.093 167.188H758.137C760.441 167.188 762.271 167.398 763.627 167.818C764.983 168.238 765.955 168.934 766.543 169.906C767.131 170.866 767.425 172.168 767.425 173.812V177.592C767.425 179.236 767.131 180.544 766.543 181.516C765.955 182.476 764.983 183.166 763.627 183.586C762.271 184.006 760.441 184.216 758.137 184.216H757.093ZM757.093 181.192H758.137C759.937 181.192 761.281 181.108 762.169 180.94C763.069 180.76 763.663 180.406 763.951 179.878C764.251 179.338 764.401 178.54 764.401 177.484V173.92C764.401 172.852 764.251 172.054 763.951 171.526C763.663 170.998 763.069 170.65 762.169 170.482C761.281 170.302 759.937 170.212 758.137 170.212H757.093C755.281 170.212 753.925 170.302 753.025 170.482C752.125 170.65 751.525 170.998 751.225 171.526C750.937 172.054 750.793 172.852 750.793 173.92V177.484C750.793 178.54 750.937 179.338 751.225 179.878C751.525 180.406 752.125 180.76 753.025 180.94C753.925 181.108 755.281 181.192 757.093 181.192ZM773.41 184.468C772.402 184.468 771.898 183.892 771.898 182.74V168.7C771.898 167.524 772.378 166.936 773.338 166.936C773.926 166.936 774.442 167.242 774.886 167.854L781.546 177.178L788.242 167.854C788.674 167.242 789.178 166.936 789.754 166.936C790.738 166.936 791.23 167.524 791.23 168.7V182.74C791.23 183.892 790.726 184.468 789.718 184.468C788.71 184.468 788.206 183.856 788.206 182.632V172.156L782.716 179.968C782.476 180.304 782.11 180.472 781.618 180.472C781.39 180.472 781.162 180.436 780.934 180.364C780.718 180.292 780.544 180.16 780.412 179.968L774.922 172.156V182.632C774.922 183.856 774.418 184.468 773.41 184.468ZM800.187 191.596C799.239 191.596 798.453 191.434 797.829 191.11C797.217 190.798 796.761 190.312 796.461 189.652C796.161 188.992 796.011 188.164 796.011 187.168C796.011 186.52 796.137 186.022 796.389 185.674C796.653 185.326 797.031 185.152 797.523 185.152C798.027 185.152 798.405 185.302 798.657 185.602C798.909 185.902 799.035 186.34 799.035 186.916C799.035 187.588 799.125 188.032 799.305 188.248C799.497 188.464 799.875 188.572 800.439 188.572H811.563C812.043 188.572 812.343 188.506 812.463 188.374C812.583 188.242 812.643 187.9 812.643 187.348V182.632C811.143 183.688 809.043 184.216 806.343 184.216H805.299C803.007 184.216 801.177 184.006 799.809 183.586C798.453 183.166 797.481 182.476 796.893 181.516C796.305 180.544 796.011 179.236 796.011 177.592V168.664C796.011 167.512 796.515 166.936 797.523 166.936C798.531 166.936 799.035 167.512 799.035 168.664V177.484C799.035 178.54 799.179 179.338 799.467 179.878C799.767 180.406 800.361 180.76 801.249 180.94C802.149 181.108 803.499 181.192 805.299 181.192H806.343C808.455 181.192 810.033 180.736 811.077 179.824C812.121 178.9 812.643 177.508 812.643 175.648V168.664C812.643 167.512 813.147 166.936 814.155 166.936C815.163 166.936 815.667 167.512 815.667 168.664V186.772C815.667 188.524 815.379 189.766 814.803 190.498C814.227 191.23 813.231 191.596 811.815 191.596H800.187Z" fill="white"/>
</svg>
