<svg width="818" height="280" viewBox="0 0 818 280" fill="none" xmlns="http://www.w3.org/2000/svg">
<path d="M139.846 139.372L70.4822 179.312L139.846 219.252L209.21 179.312L139.846 139.372Z" fill="#888888"/>
<path d="M70.7425 99.9321L70.7395 179.817L140.1 139.872L140.103 59.987L70.7425 99.9321Z" fill="#767676"/>
<path d="M108.687 158.006L108.684 78.1207L178.045 118.066L178.048 197.951L108.687 158.006Z" fill="#515151"/>
<path d="M121.069 149.845L110.942 132.604L113.525 131.095L116.108 129.585L126.235 146.827L123.652 148.336L121.069 149.845Z" fill="#D2D2D2"/>
<path d="M121.07 138.264C123.868 143.028 123.861 148.219 121.054 149.859C118.247 151.5 113.703 148.968 110.904 144.204C108.106 139.44 108.113 134.248 110.92 132.608C113.727 130.968 118.271 133.5 121.07 138.264Z" fill="#D2D2D2"/>
<path d="M126.146 135.336C128.944 140.1 128.937 145.291 126.13 146.931C123.323 148.572 118.779 146.04 115.981 141.276C113.182 136.512 113.19 131.32 115.997 129.68C118.804 128.04 123.348 130.572 126.146 135.336Z" fill="#D2D2D2"/>
<path d="M119.656 139.028C122.23 143.41 122.227 148.183 119.65 149.689C117.072 151.195 112.896 148.864 110.323 144.482C107.749 140.1 107.752 135.327 110.329 133.821C112.907 132.315 117.082 134.646 119.656 139.028Z" fill="#FAFAFA"/>
<path d="M119.287 139.244C121.711 143.371 121.752 147.84 119.379 149.227C117.005 150.614 113.116 148.392 110.692 144.266C108.268 140.139 108.227 135.669 110.6 134.282C112.973 132.895 116.862 135.117 119.287 139.244Z" fill="#DC7AFF"/>
<path d="M119.032 139.403C121.319 143.297 121.353 147.518 119.108 148.83C116.862 150.142 113.187 148.049 110.9 144.155C108.613 140.261 108.579 136.04 110.824 134.728C113.07 133.416 116.745 135.509 119.032 139.403Z" fill="white"/>
<path d="M118.847 139.511C121.045 143.252 121.089 147.301 118.945 148.553C116.801 149.806 113.282 147.788 111.084 144.047C108.887 140.305 108.843 136.257 110.986 135.004C113.13 133.751 116.649 135.769 118.847 139.511Z" fill="#DC7AFF"/>
<path d="M118.662 139.619C120.77 143.208 120.824 147.084 118.782 148.277C116.741 149.47 113.377 147.528 111.269 143.939C109.161 140.35 109.107 136.474 111.149 135.281C113.19 134.088 116.554 136.03 118.662 139.619Z" fill="white"/>
<path d="M118.478 139.727C120.496 143.163 120.56 146.867 118.62 148C116.681 149.133 113.473 147.267 111.454 143.83C109.436 140.394 109.372 136.69 111.312 135.557C113.251 134.424 116.459 136.291 118.478 139.727Z" fill="#1E1E1E"/>
<path d="M121.284 137.119C122.346 136.924 123.049 135.907 122.854 134.847C122.658 133.788 121.639 133.087 120.576 133.281C119.514 133.476 118.811 134.493 119.007 135.553C119.202 136.612 120.222 137.313 121.284 137.119Z" fill="#E6E6E6"/>
<path d="M124.126 141.754C125.189 141.559 125.891 140.542 125.696 139.482C125.501 138.423 124.481 137.722 123.419 137.916C122.357 138.111 121.654 139.128 121.849 140.188C122.044 141.247 123.064 141.948 124.126 141.754Z" fill="#E6E6E6"/>
<path d="M137.544 126.168L135.302 122.911L119.823 133.508L122.064 136.766L137.544 126.168Z" fill="#E6E6E6"/>
<path d="M137.796 127.374L134.871 124.709L122.207 138.534L125.131 141.199L137.796 127.374Z" fill="#E6E6E6"/>
<path d="M84.8462 141.843L134.703 170.622L134.729 183.608L134.756 196.593L84.8995 167.814L84.8729 154.828L84.8462 141.843Z" fill="#E2E2E2"/>
<path d="M84.8462 141.843L91.113 138.234L140.969 167.014L134.703 170.622L84.8462 141.843Z" fill="#C5C5C5"/>
<path d="M105.995 158.919C109.545 165.051 109.516 171.696 105.93 173.761C102.344 175.826 96.5598 172.528 93.0102 166.396C89.4605 160.264 89.4899 153.619 93.0756 151.554C96.6614 149.489 102.446 152.786 105.995 158.919Z" fill="#FAFAFA"/>
<path d="M104.414 159.829C107.784 165.65 107.735 171.97 104.305 173.945C100.875 175.92 95.3632 172.802 91.9937 166.982C88.6243 161.161 88.6733 154.841 92.1032 152.866C95.5331 150.891 101.045 154.008 104.414 159.829Z" fill="#DC7AFF"/>
<path d="M102.688 160.748C105.787 166.102 105.747 171.912 102.597 173.726C99.4481 175.539 94.3828 172.669 91.2836 167.315C88.1845 161.961 88.2251 156.151 91.3744 154.337C94.5236 152.524 99.5889 155.394 102.688 160.748Z" fill="#FAFAFA"/>
<path d="M102.237 161.009C105.156 166.051 105.171 171.493 102.271 173.163C99.3715 174.832 94.6545 172.098 91.7355 167.056C88.8165 162.013 88.801 156.571 91.7008 154.901C94.6006 153.232 99.3176 155.966 102.237 161.009Z" fill="#606060"/>
<path d="M98.8816 163.015C99.9087 164.789 99.9324 166.693 98.9346 167.268C97.9368 167.842 96.2954 166.87 95.2683 165.096C94.2413 163.321 94.2176 161.417 95.2153 160.843C96.2131 160.268 97.8546 161.241 98.8816 163.015Z" fill="#DC7AFF"/>
<path d="M98.2843 163.284C98.969 164.467 98.968 165.746 98.282 166.141C97.596 166.536 96.4849 165.898 95.8002 164.715C95.1155 163.532 95.1165 162.253 95.8025 161.858C96.4885 161.463 97.5996 162.101 98.2843 163.284Z" fill="#FAFAFA"/>
<path d="M97.607 163.675C97.8953 164.173 97.8762 164.722 97.5644 164.901C97.2526 165.081 96.7661 164.823 96.4778 164.325C96.1895 163.827 96.2086 163.277 96.5204 163.098C96.8322 162.918 97.3187 163.177 97.607 163.675Z" fill="#DC7AFF"/>
<path d="M128.201 172.182C131.751 178.314 131.721 184.959 128.135 187.024C124.55 189.089 118.765 185.791 115.216 179.659C111.666 173.527 111.695 166.882 115.281 164.817C118.867 162.752 124.651 166.049 128.201 172.182Z" fill="#FAFAFA"/>
<path d="M126.62 173.092C129.99 178.913 129.941 185.233 126.511 187.208C123.081 189.183 117.569 186.065 114.2 180.245C110.83 174.424 110.879 168.104 114.309 166.129C117.739 164.154 123.251 167.271 126.62 173.092Z" fill="#DC7AFF"/>
<path d="M124.894 174.011C127.993 179.365 127.953 185.175 124.803 186.989C121.654 188.802 116.589 185.932 113.49 180.578C110.391 175.224 110.431 169.414 113.58 167.6C116.73 165.787 121.795 168.657 124.894 174.011Z" fill="#FAFAFA"/>
<path d="M124.443 174.272C127.362 179.314 127.377 184.756 124.477 186.426C121.578 188.095 116.861 185.361 113.942 180.319C111.023 175.276 111.007 169.834 113.907 168.164C116.807 166.495 121.524 169.229 124.443 174.272Z" fill="#606060"/>
<path d="M121.087 176.279C122.114 178.053 122.138 179.957 121.14 180.532C120.143 181.106 118.501 180.134 117.474 178.36C116.447 176.585 116.423 174.681 117.421 174.107C118.419 173.532 120.06 174.505 121.087 176.279Z" fill="#DC7AFF"/>
<path d="M120.49 176.547C121.175 177.73 121.174 179.009 120.488 179.404C119.802 179.799 118.691 179.161 118.006 177.978C117.321 176.795 117.322 175.516 118.008 175.121C118.694 174.726 119.806 175.364 120.49 176.547Z" fill="#FAFAFA"/>
<path d="M119.813 176.938C120.101 177.436 120.082 177.985 119.771 178.164C119.459 178.344 118.972 178.086 118.684 177.588C118.396 177.09 118.415 176.54 118.727 176.361C119.038 176.181 119.525 176.44 119.813 176.938Z" fill="#DC7AFF"/>
<mask id="mask0_0_1" style="mask-type:alpha" maskUnits="userSpaceOnUse" x="70" y="99" width="70" height="121">
<path d="M70.4854 179.853L70.4824 99.9685L139.843 139.914L139.846 219.798L70.4854 179.853Z" fill="#232323" fill-opacity="0.58"/>
</mask>
<g mask="url(#mask0_0_1)">
<path d="M70.4854 179.853L70.4824 99.9685L139.843 139.914L139.846 219.798L70.4854 179.853Z" fill="#232323" fill-opacity="0.49"/>
<path d="M53.736 105.655L46.6223 109.751L121.071 238.365L128.185 234.269L53.736 105.655Z" fill="white" fill-opacity="0.24"/>
<path d="M50.9663 88.2194L47.9229 89.972L122.372 218.586L125.415 216.834L50.9663 88.2194Z" fill="white" fill-opacity="0.24"/>
<path d="M79.8457 64.0762L76.8022 65.8288L151.251 194.443L154.295 192.69L79.8457 64.0762Z" fill="white" fill-opacity="0.24"/>
</g>
<path fill-rule="evenodd" clip-rule="evenodd" d="M70.4954 179.666L70.4924 99.7812L139.853 139.726L139.856 219.611L70.4954 179.666ZM134.638 143.225L127.109 138.889L119.58 134.553L104.522 125.881L89.4627 117.208L81.9334 112.872L74.4042 108.536L74.4045 116.896L74.4048 125.256L74.4054 141.976L74.4058 150.336L74.4061 158.696L74.4064 167.056L74.4067 175.416L81.936 179.752L89.4652 184.089L104.524 192.761L119.583 201.433L127.111 205.769L134.641 210.105V201.745L134.64 193.385V185.025V176.665L134.639 168.305V159.945V151.585L134.638 143.225Z" fill="#C5C5C5"/>
<path d="M74.4044 116.896L74.4041 108.536L81.9333 112.872L74.4044 116.896Z" fill="#C5C5C5"/>
<path d="M127.109 138.889L134.638 143.225L134.639 151.585L127.109 138.889Z" fill="#C5C5C5"/>
<path d="M74.4066 175.416L74.4062 167.056L81.9358 179.752L74.4066 175.416Z" fill="#C5C5C5"/>
<path d="M134.641 201.745V210.105L127.111 205.769L134.641 201.745Z" fill="#C5C5C5"/>
<path d="M139.846 139.726L139.843 219.611L209.204 179.666L209.207 99.781L139.846 139.726Z" fill="#FAFAFA"/>
<path d="M139.846 59.9147L70.4822 99.8545L139.846 139.794L209.21 99.8545L139.846 59.9147Z" fill="#E2E2E2"/>
<path d="M259.638 138C258.294 138 257.622 137.328 257.622 135.984V107.472C257.622 106.128 258.294 105.456 259.638 105.456H272.166C274.71 105.456 276.662 106.128 278.022 107.472C279.398 108.816 280.086 110.736 280.086 113.232V114.528C280.086 116.688 279.406 118.36 278.046 119.544C280.59 120.968 281.862 123.568 281.862 127.344V128.976C281.862 131.92 281.078 134.16 279.51 135.696C277.958 137.232 275.718 138 272.79 138H259.638ZM261.654 133.968H272.79C274.598 133.968 275.886 133.584 276.654 132.816C277.438 132.032 277.83 130.752 277.83 128.976V127.344C277.83 125.568 277.454 124.304 276.702 123.552C275.95 122.784 274.646 122.4 272.79 122.4H261.654V133.968ZM261.654 118.368H273.03C274.198 118.368 274.99 118.008 275.406 117.288C275.838 116.568 276.054 115.648 276.054 114.528V113.232C276.054 111.84 275.766 110.872 275.19 110.328C274.614 109.768 273.606 109.488 272.166 109.488H261.654V118.368ZM300.431 138C296.767 138 294.055 137.128 292.295 135.384C290.551 133.624 289.679 130.912 289.679 127.248V107.472C289.679 106.8 289.847 106.296 290.183 105.96C290.519 105.624 291.023 105.456 291.695 105.456C292.367 105.456 292.871 105.624 293.207 105.96C293.543 106.296 293.711 106.8 293.711 107.472V127.248C293.711 128.96 293.911 130.304 294.311 131.28C294.727 132.256 295.423 132.952 296.399 133.368C297.375 133.768 298.719 133.968 300.431 133.968H306.191C307.903 133.968 309.247 133.768 310.223 133.368C311.199 132.952 311.887 132.256 312.287 131.28C312.703 130.304 312.911 128.96 312.911 127.248V107.472C312.911 106.8 313.079 106.296 313.415 105.96C313.751 105.624 314.255 105.456 314.927 105.456C315.599 105.456 316.103 105.624 316.439 105.96C316.775 106.296 316.943 106.8 316.943 107.472V127.248C316.943 130.912 316.071 133.624 314.327 135.384C312.583 137.128 309.871 138 306.191 138H300.431ZM328.685 138C327.997 138 327.485 137.84 327.149 137.52C326.829 137.184 326.669 136.672 326.669 135.984V107.52C326.669 106.816 326.829 106.304 327.149 105.984C327.485 105.664 327.997 105.504 328.685 105.504C329.389 105.504 329.901 105.664 330.221 105.984C330.541 106.304 330.701 106.816 330.701 107.52V135.984C330.701 136.672 330.541 137.184 330.221 137.52C329.901 137.84 329.389 138 328.685 138ZM342.701 138C341.357 138 340.685 137.328 340.685 135.984V107.472C340.685 106.128 341.357 105.456 342.701 105.456C344.045 105.456 344.717 106.128 344.717 107.472V133.968H358.013C359.357 133.968 360.029 134.64 360.029 135.984C360.029 137.328 359.357 138 358.013 138H342.701ZM368.669 138C367.325 138 366.653 137.328 366.653 135.984V107.472C366.653 106.128 367.325 105.456 368.669 105.456H380.237C384.413 105.456 387.485 106.448 389.453 108.432C391.437 110.4 392.429 113.472 392.429 117.648V125.808C392.429 129.984 391.445 133.064 389.477 135.048C387.525 137.016 384.445 138 380.237 138H368.669ZM370.685 133.968H380.237C382.285 133.968 383.901 133.72 385.085 133.224C386.285 132.712 387.133 131.864 387.629 130.68C388.141 129.48 388.397 127.856 388.397 125.808V117.648C388.397 115.616 388.141 114.008 387.629 112.824C387.133 111.624 386.285 110.768 385.085 110.256C383.901 109.744 382.285 109.488 380.237 109.488H370.685V133.968ZM418.357 138C417.013 138 416.341 137.328 416.341 135.984V107.472C416.341 106.128 417.013 105.456 418.357 105.456H430.885C433.429 105.456 435.381 106.128 436.741 107.472C438.117 108.816 438.805 110.736 438.805 113.232V114.528C438.805 116.688 438.125 118.36 436.765 119.544C439.309 120.968 440.581 123.568 440.581 127.344V128.976C440.581 131.92 439.797 134.16 438.229 135.696C436.677 137.232 434.437 138 431.509 138H418.357ZM420.373 133.968H431.509C433.317 133.968 434.605 133.584 435.373 132.816C436.157 132.032 436.549 130.752 436.549 128.976V127.344C436.549 125.568 436.173 124.304 435.421 123.552C434.669 122.784 433.365 122.4 431.509 122.4H420.373V133.968ZM420.373 118.368H431.749C432.917 118.368 433.709 118.008 434.125 117.288C434.557 116.568 434.773 115.648 434.773 114.528V113.232C434.773 111.84 434.485 110.872 433.909 110.328C433.333 109.768 432.325 109.488 430.885 109.488H420.373V118.368ZM458.238 138C454.574 138 451.862 137.128 450.102 135.384C448.358 133.624 447.486 130.912 447.486 127.248V116.16C447.486 112.464 448.366 109.752 450.126 108.024C451.886 106.28 454.59 105.424 458.238 105.456H463.998C467.678 105.456 470.39 106.328 472.134 108.072C473.878 109.816 474.75 112.528 474.75 116.208V127.248C474.75 130.912 473.878 133.624 472.134 135.384C470.39 137.128 467.678 138 463.998 138H458.238ZM458.238 133.968H463.998C465.71 133.968 467.054 133.768 468.03 133.368C469.006 132.952 469.694 132.256 470.094 131.28C470.51 130.304 470.718 128.96 470.718 127.248V116.208C470.718 114.512 470.51 113.176 470.094 112.2C469.694 111.224 469.006 110.528 468.03 110.112C467.054 109.696 465.71 109.488 463.998 109.488H458.238C456.542 109.472 455.206 109.664 454.23 110.064C453.254 110.464 452.558 111.152 452.142 112.128C451.726 113.104 451.518 114.448 451.518 116.16V127.248C451.518 128.96 451.718 130.304 452.118 131.28C452.534 132.256 453.23 132.952 454.206 133.368C455.182 133.768 456.526 133.968 458.238 133.968ZM481.758 137.568C480.686 136.832 480.526 135.888 481.278 134.736L490.062 121.776L480.798 108.72C480.078 107.664 480.254 106.72 481.326 105.888C482.43 105.136 483.358 105.312 484.11 106.416L492.702 118.464L501.342 106.416C502.174 105.344 503.102 105.2 504.126 105.984C505.214 106.784 505.374 107.712 504.606 108.768L495.15 121.92L504.222 134.688C504.974 135.792 504.798 136.752 503.694 137.568C502.59 138.32 501.662 138.144 500.91 137.04L492.558 125.28L484.59 137.088C483.854 138.128 482.91 138.288 481.758 137.568Z" fill="white"/>
<path d="M270.594 184.468C269.586 184.468 269.082 183.88 269.082 182.704V170.212H261.954C261.15 170.212 260.616 170.308 260.352 170.5C260.1 170.692 259.974 171.088 259.974 171.688V179.32C259.974 180.472 259.818 181.414 259.506 182.146C259.194 182.866 258.708 183.4 258.048 183.748C257.388 184.084 256.53 184.252 255.474 184.252C254.85 184.252 254.34 184.138 253.944 183.91C253.548 183.682 253.35 183.28 253.35 182.704C253.35 181.696 253.986 181.192 255.258 181.192C255.906 181.192 256.35 181.09 256.59 180.886C256.83 180.682 256.95 180.304 256.95 179.752V172.084C256.95 170.812 257.088 169.822 257.364 169.114C257.64 168.406 258.12 167.908 258.804 167.62C259.5 167.332 260.454 167.188 261.666 167.188H272.106V182.668C272.106 183.868 271.602 184.468 270.594 184.468ZM281.118 191.596C280.17 191.596 279.384 191.434 278.76 191.11C278.148 190.798 277.692 190.312 277.392 189.652C277.092 188.992 276.942 188.164 276.942 187.168C276.942 186.52 277.068 186.022 277.32 185.674C277.584 185.326 277.962 185.152 278.454 185.152C278.958 185.152 279.336 185.302 279.588 185.602C279.84 185.902 279.966 186.34 279.966 186.916C279.966 187.588 280.056 188.032 280.236 188.248C280.428 188.464 280.806 188.572 281.37 188.572H292.494C292.974 188.572 293.274 188.506 293.394 188.374C293.514 188.242 293.574 187.9 293.574 187.348V182.632C292.074 183.688 289.974 184.216 287.274 184.216H286.23C283.938 184.216 282.108 184.006 280.74 183.586C279.384 183.166 278.412 182.476 277.824 181.516C277.236 180.544 276.942 179.236 276.942 177.592V168.664C276.942 167.512 277.446 166.936 278.454 166.936C279.462 166.936 279.966 167.512 279.966 168.664V177.484C279.966 178.54 280.11 179.338 280.398 179.878C280.698 180.406 281.292 180.76 282.18 180.94C283.08 181.108 284.43 181.192 286.23 181.192H287.274C289.386 181.192 290.964 180.736 292.008 179.824C293.052 178.9 293.574 177.508 293.574 175.648V168.664C293.574 167.512 294.078 166.936 295.086 166.936C296.094 166.936 296.598 167.512 296.598 168.664V186.772C296.598 188.524 296.31 189.766 295.734 190.498C295.158 191.23 294.162 191.596 292.746 191.596H281.118ZM317.756 184.468C316.724 184.468 316.208 183.892 316.208 182.74V178.384C314.744 179.44 312.86 179.968 310.556 179.968H309.296C307.196 179.968 305.51 179.752 304.238 179.32C302.978 178.876 302.066 178.162 301.502 177.178C300.938 176.182 300.656 174.868 300.656 173.236V168.664C300.656 167.512 301.16 166.936 302.168 166.936C303.176 166.936 303.68 167.512 303.68 168.664V173.128C303.68 174.196 303.824 175.006 304.112 175.558C304.4 176.098 304.946 176.464 305.75 176.656C306.554 176.848 307.736 176.944 309.296 176.944H310.556C312.452 176.944 313.868 176.476 314.804 175.54C315.74 174.604 316.208 173.188 316.208 171.292V168.664C316.208 167.512 316.712 166.936 317.72 166.936C318.728 166.936 319.232 167.512 319.232 168.664V182.704C319.232 183.88 318.74 184.468 317.756 184.468ZM324.232 184.216V168.664C324.232 167.512 324.736 166.936 325.744 166.936C326.752 166.936 327.256 167.512 327.256 168.664V181.192H332.404V168.664C332.404 167.512 332.908 166.936 333.916 166.936C334.924 166.936 335.428 167.512 335.428 168.664V181.192H340.576V168.664C340.576 167.512 341.08 166.936 342.088 166.936C343.096 166.936 343.6 167.512 343.6 168.664V184.216H324.232ZM365.335 184.468C364.327 184.468 363.823 183.844 363.823 182.596V171.472L351.457 184.216H348.631V168.7C348.631 167.524 349.135 166.936 350.143 166.936C351.151 166.936 351.655 167.56 351.655 168.808V180.076L364.129 167.188H366.847V182.704C366.847 183.88 366.343 184.468 365.335 184.468ZM380.653 184.216C378.349 184.216 376.513 184.012 375.145 183.604C373.789 183.184 372.811 182.494 372.211 181.534C371.623 180.562 371.329 179.248 371.329 177.592V173.812C371.329 172.156 371.623 170.848 372.211 169.888C372.811 168.916 373.789 168.226 375.145 167.818C376.513 167.398 378.349 167.188 380.653 167.188H381.697C384.001 167.188 385.831 167.398 387.187 167.818C388.543 168.238 389.515 168.934 390.103 169.906C390.691 170.866 390.985 172.168 390.985 173.812V175.756H374.353V177.484C374.353 178.54 374.497 179.338 374.785 179.878C375.085 180.406 375.685 180.76 376.585 180.94C377.485 181.108 378.841 181.192 380.653 181.192H386.197C386.761 181.192 387.133 181.09 387.313 180.886C387.505 180.682 387.601 180.28 387.601 179.68C387.601 179.08 387.733 178.612 387.997 178.276C388.273 177.94 388.651 177.772 389.131 177.772C389.623 177.784 389.995 177.97 390.247 178.33C390.499 178.678 390.625 179.176 390.625 179.824C390.625 180.82 390.475 181.648 390.175 182.308C389.875 182.956 389.413 183.436 388.789 183.748C388.177 184.06 387.397 184.216 386.449 184.216H380.653ZM374.371 172.732H387.943C387.811 171.676 387.385 171.004 386.665 170.716C386.233 170.548 385.591 170.422 384.739 170.338C383.899 170.254 382.885 170.212 381.697 170.212H380.653C379.357 170.212 378.283 170.26 377.431 170.356C376.591 170.44 375.973 170.572 375.577 170.752C374.857 171.052 374.455 171.712 374.371 172.732ZM408.15 184.468C407.142 184.468 406.638 183.892 406.638 182.74V167.188H424.854V182.74C424.854 183.892 424.35 184.468 423.342 184.468C422.334 184.468 421.83 183.892 421.83 182.74V170.212H409.662V182.74C409.662 183.892 409.158 184.468 408.15 184.468ZM431.317 184.468C430.873 184.468 430.513 184.312 430.237 184C429.973 183.688 429.841 183.292 429.841 182.812V168.592C429.841 168.088 429.985 167.686 430.273 167.386C430.561 167.086 430.945 166.936 431.425 166.936C431.857 166.936 432.205 167.092 432.469 167.404C432.733 167.704 432.865 168.1 432.865 168.592V174.172H436.321C436.561 174.172 436.849 173.992 437.185 173.632C437.533 173.272 438.025 172.618 438.661 171.67C439.153 170.962 439.711 170.248 440.335 169.528C440.971 168.808 441.781 168.19 442.765 167.674C443.761 167.158 444.865 166.9 446.077 166.9C446.641 166.9 447.091 167.032 447.427 167.296C447.775 167.56 447.949 167.932 447.949 168.412C447.949 168.916 447.787 169.294 447.463 169.546C447.151 169.798 446.689 169.924 446.077 169.924C445.453 169.924 444.841 170.164 444.241 170.644C443.653 171.124 442.933 171.97 442.081 173.182C441.865 173.482 441.655 173.764 441.451 174.028C441.259 174.28 441.073 174.514 440.893 174.73C440.725 174.934 440.557 175.12 440.389 175.288C441.325 175.696 442.171 176.26 442.927 176.98C443.695 177.7 444.211 178.432 444.475 179.176C444.763 179.92 445.045 180.484 445.321 180.868C445.597 181.252 445.849 181.444 446.077 181.444C446.641 181.444 447.091 181.582 447.427 181.858C447.775 182.134 447.949 182.5 447.949 182.956C447.949 183.964 447.325 184.468 446.077 184.468C445.237 184.468 444.511 184.342 443.899 184.09C443.287 183.838 442.801 183.454 442.441 182.938C442.081 182.446 441.787 181.966 441.559 181.498C441.331 181.03 441.067 180.556 440.767 180.076C440.467 179.584 440.029 179.086 439.453 178.582C438.457 177.658 436.741 177.196 434.305 177.196H432.865V182.848C432.865 183.34 432.727 183.73 432.451 184.018C432.175 184.318 431.797 184.468 431.317 184.468ZM462.451 187.528C461.443 187.528 460.939 186.916 460.939 185.692V184C460.939 182.092 461.827 181.156 463.603 181.192H464.539L462.919 181.912C465.547 177.88 466.843 172.972 466.807 167.188H478.147V181.192H479.119C480.727 181.192 481.531 182.128 481.531 184V185.692C481.531 186.916 481.027 187.528 480.019 187.528C479.011 187.528 478.507 186.916 478.507 185.692V184.216H463.963V185.692C463.963 186.916 463.459 187.528 462.451 187.528ZM466.825 181.192H475.015V170.212H470.083C469.939 174.136 468.853 177.796 466.825 181.192ZM493.61 184.216C491.306 184.216 489.47 184.012 488.102 183.604C486.746 183.184 485.768 182.494 485.168 181.534C484.58 180.562 484.286 179.248 484.286 177.592V173.812C484.286 172.156 484.58 170.848 485.168 169.888C485.768 168.916 486.746 168.226 488.102 167.818C489.47 167.398 491.306 167.188 493.61 167.188H494.654C496.958 167.188 498.788 167.398 500.144 167.818C501.5 168.238 502.472 168.934 503.06 169.906C503.648 170.866 503.942 172.168 503.942 173.812V177.592C503.942 179.236 503.648 180.544 503.06 181.516C502.472 182.476 501.5 183.166 500.144 183.586C498.788 184.006 496.958 184.216 494.654 184.216H493.61ZM493.61 181.192H494.654C496.454 181.192 497.798 181.108 498.686 180.94C499.586 180.76 500.18 180.406 500.468 179.878C500.768 179.338 500.918 178.54 500.918 177.484V173.92C500.918 172.852 500.768 172.054 500.468 171.526C500.18 170.998 499.586 170.65 498.686 170.482C497.798 170.302 496.454 170.212 494.654 170.212H493.61C491.798 170.212 490.442 170.302 489.542 170.482C488.642 170.65 488.042 170.998 487.742 171.526C487.454 172.054 487.31 172.852 487.31 173.92V177.484C487.31 178.54 487.454 179.338 487.742 179.878C488.042 180.406 488.642 180.76 489.542 180.94C490.442 181.108 491.798 181.192 493.61 181.192ZM517.235 184.216C514.931 184.216 513.095 184.012 511.727 183.604C510.371 183.184 509.393 182.494 508.793 181.534C508.205 180.562 507.911 179.248 507.911 177.592V173.812C507.911 172.156 508.205 170.848 508.793 169.888C509.393 168.916 510.371 168.226 511.727 167.818C513.095 167.398 514.931 167.188 517.235 167.188H522.311C523.259 167.188 524.039 167.35 524.651 167.674C525.275 167.986 525.737 168.472 526.037 169.132C526.337 169.78 526.487 170.608 526.487 171.616C526.487 172.264 526.355 172.762 526.091 173.11C525.839 173.458 525.467 173.632 524.975 173.632C524.495 173.632 524.123 173.47 523.859 173.146C523.595 172.81 523.463 172.348 523.463 171.76C523.463 171.16 523.367 170.752 523.175 170.536C522.983 170.32 522.611 170.212 522.059 170.212H517.235C515.423 170.212 514.067 170.302 513.167 170.482C512.267 170.65 511.667 170.998 511.367 171.526C511.079 172.054 510.935 172.852 510.935 173.92V177.484C510.935 178.54 511.079 179.338 511.367 179.878C511.667 180.406 512.267 180.76 513.167 180.94C514.067 181.108 515.423 181.192 517.235 181.192H522.059C522.623 181.192 522.995 181.09 523.175 180.886C523.367 180.682 523.463 180.28 523.463 179.68C523.463 179.116 523.589 178.66 523.841 178.312C524.093 177.952 524.459 177.772 524.939 177.772C525.407 177.772 525.779 177.946 526.055 178.294C526.343 178.63 526.487 179.14 526.487 179.824C526.487 180.82 526.337 181.648 526.037 182.308C525.737 182.956 525.275 183.436 524.651 183.748C524.039 184.06 523.259 184.216 522.311 184.216H517.235ZM537.468 184.468C536.364 184.468 535.812 183.928 535.812 182.848V170.212H530.628C529.452 170.212 528.864 169.708 528.864 168.7C528.864 167.692 529.452 167.188 530.628 167.188H544.344C545.52 167.188 546.108 167.692 546.108 168.7C546.108 169.708 545.52 170.212 544.344 170.212H539.196V182.848C539.196 183.34 539.04 183.73 538.728 184.018C538.416 184.318 537.996 184.468 537.468 184.468ZM553.016 191.596C552.068 191.596 551.282 191.434 550.658 191.11C550.046 190.798 549.59 190.312 549.29 189.652C548.99 188.992 548.84 188.164 548.84 187.168C548.84 186.52 548.966 186.022 549.218 185.674C549.482 185.326 549.86 185.152 550.352 185.152C550.856 185.152 551.234 185.302 551.486 185.602C551.738 185.902 551.864 186.34 551.864 186.916C551.864 187.588 551.954 188.032 552.134 188.248C552.326 188.464 552.704 188.572 553.268 188.572H564.392C564.872 188.572 565.172 188.506 565.292 188.374C565.412 188.242 565.472 187.9 565.472 187.348V182.632C563.972 183.688 561.872 184.216 559.172 184.216H558.128C555.836 184.216 554.006 184.006 552.638 183.586C551.282 183.166 550.31 182.476 549.722 181.516C549.134 180.544 548.84 179.236 548.84 177.592V168.664C548.84 167.512 549.344 166.936 550.352 166.936C551.36 166.936 551.864 167.512 551.864 168.664V177.484C551.864 178.54 552.008 179.338 552.296 179.878C552.596 180.406 553.19 180.76 554.078 180.94C554.978 181.108 556.328 181.192 558.128 181.192H559.172C561.284 181.192 562.862 180.736 563.906 179.824C564.95 178.9 565.472 177.508 565.472 175.648V168.664C565.472 167.512 565.976 166.936 566.984 166.936C567.992 166.936 568.496 167.512 568.496 168.664V186.772C568.496 188.524 568.208 189.766 567.632 190.498C567.056 191.23 566.06 191.596 564.644 191.596H553.016ZM575.002 184.468C573.994 184.468 573.49 183.892 573.49 182.74V167.188H591.706V182.74C591.706 183.892 591.202 184.468 590.194 184.468C589.186 184.468 588.682 183.892 588.682 182.74V170.212H576.514V182.74C576.514 183.892 576.01 184.468 575.002 184.468ZM598.204 184.468C597.196 184.468 596.692 183.892 596.692 182.74V168.7C596.692 167.524 597.172 166.936 598.132 166.936C599.188 166.936 599.716 167.524 599.716 168.7V173.704H611.884V168.7C611.884 167.524 612.388 166.936 613.396 166.936C614.404 166.936 614.908 167.524 614.908 168.7V182.74C614.908 183.892 614.404 184.468 613.396 184.468C612.388 184.468 611.884 183.892 611.884 182.74V176.728H599.716V182.74C599.716 183.892 599.212 184.468 598.204 184.468ZM619.896 184.216V168.7C619.896 167.524 620.4 166.936 621.408 166.936C622.416 166.936 622.92 167.524 622.92 168.7V173.92H630.66C632.04 173.92 633.204 174.124 634.152 174.532C635.112 174.928 635.844 175.51 636.348 176.278C636.852 177.034 637.104 177.964 637.104 179.068C637.104 180.16 636.852 181.09 636.348 181.858C635.856 182.614 635.13 183.19 634.17 183.586C633.21 183.982 632.04 184.192 630.66 184.216H619.896ZM622.92 181.192H630.336C631.308 181.192 632.172 181.072 632.928 180.832C633.696 180.58 634.08 180.052 634.08 179.248C634.08 178.588 633.936 178.096 633.648 177.772C633.372 177.436 632.952 177.214 632.388 177.106C631.836 176.998 631.152 176.944 630.336 176.944H622.92V181.192ZM639.552 185.008C638.568 185.008 638.076 184.432 638.076 183.28V168.16C638.076 167.62 638.208 167.194 638.472 166.882C638.748 166.558 639.12 166.396 639.588 166.396C640.056 166.396 640.422 166.558 640.686 166.882C640.962 167.194 641.1 167.62 641.1 168.16V183.28C641.1 184.432 640.584 185.008 639.552 185.008ZM658.813 184.468C658.369 184.468 658.009 184.312 657.733 184C657.469 183.688 657.337 183.292 657.337 182.812V168.592C657.337 168.088 657.481 167.686 657.769 167.386C658.057 167.086 658.441 166.936 658.921 166.936C659.353 166.936 659.701 167.092 659.965 167.404C660.229 167.704 660.361 168.1 660.361 168.592V174.172H663.817C664.057 174.172 664.345 173.992 664.681 173.632C665.029 173.272 665.521 172.618 666.157 171.67C666.649 170.962 667.207 170.248 667.831 169.528C668.467 168.808 669.277 168.19 670.261 167.674C671.257 167.158 672.361 166.9 673.573 166.9C674.137 166.9 674.587 167.032 674.923 167.296C675.271 167.56 675.445 167.932 675.445 168.412C675.445 168.916 675.283 169.294 674.959 169.546C674.647 169.798 674.185 169.924 673.573 169.924C672.949 169.924 672.337 170.164 671.737 170.644C671.149 171.124 670.429 171.97 669.577 173.182C669.361 173.482 669.151 173.764 668.947 174.028C668.755 174.28 668.569 174.514 668.389 174.73C668.221 174.934 668.053 175.12 667.885 175.288C668.821 175.696 669.667 176.26 670.423 176.98C671.191 177.7 671.707 178.432 671.971 179.176C672.259 179.92 672.541 180.484 672.817 180.868C673.093 181.252 673.345 181.444 673.573 181.444C674.137 181.444 674.587 181.582 674.923 181.858C675.271 182.134 675.445 182.5 675.445 182.956C675.445 183.964 674.821 184.468 673.573 184.468C672.733 184.468 672.007 184.342 671.395 184.09C670.783 183.838 670.297 183.454 669.937 182.938C669.577 182.446 669.283 181.966 669.055 181.498C668.827 181.03 668.563 180.556 668.263 180.076C667.963 179.584 667.525 179.086 666.949 178.582C665.953 177.658 664.237 177.196 661.801 177.196H660.361V182.848C660.361 183.34 660.223 183.73 659.947 184.018C659.671 184.318 659.293 184.468 658.813 184.468ZM694.251 184.468C693.951 184.468 693.705 184.378 693.513 184.198C693.321 184.03 693.177 183.664 693.081 183.1C692.997 182.536 692.955 181.672 692.955 180.508L693.351 181.444C692.595 182.488 691.647 183.214 690.507 183.622C689.379 184.018 688.047 184.216 686.511 184.216H683.163C681.855 184.216 680.787 183.784 679.959 182.92C679.143 182.044 678.735 180.724 678.735 178.96C678.735 177.856 678.915 176.926 679.275 176.17C679.635 175.402 680.193 174.784 680.949 174.316C681.705 173.836 682.671 173.488 683.847 173.272C685.023 173.056 686.427 172.948 688.059 172.948H694.143L692.775 174.172V171.508C692.775 170.98 692.685 170.632 692.505 170.464C692.337 170.296 691.959 170.212 691.371 170.212H686.295C685.083 170.212 684.153 170.242 683.505 170.302C682.869 170.362 682.425 170.482 682.173 170.662C681.921 170.83 681.783 171.076 681.759 171.4C681.711 172.024 681.597 172.486 681.417 172.786C681.237 173.086 680.847 173.236 680.247 173.236C679.239 173.236 678.735 172.588 678.735 171.292C678.735 169.864 679.329 168.826 680.517 168.178C681.705 167.518 683.547 167.188 686.043 167.188H691.623C693.159 167.188 694.239 167.554 694.863 168.286C695.487 169.018 695.799 170.284 695.799 172.084V182.74C695.799 183.892 695.283 184.468 694.251 184.468ZM683.271 181.336H686.511C688.779 181.336 690.387 180.88 691.335 179.968C692.295 179.044 692.775 177.592 692.775 175.612L692.991 175.828H688.059C686.475 175.828 685.221 175.906 684.297 176.062C683.385 176.206 682.731 176.494 682.335 176.926C681.951 177.358 681.759 178 681.759 178.852C681.759 179.62 681.891 180.226 682.155 180.67C682.431 181.114 682.803 181.336 683.271 181.336ZM701.37 184.468C700.122 184.468 699.498 183.964 699.498 182.956C699.498 181.948 700.122 181.444 701.37 181.444C701.526 181.444 701.67 181.336 701.802 181.12C701.934 180.904 702.078 180.502 702.234 179.914C702.51 178.858 702.9 177.934 703.404 177.142C703.908 176.35 704.64 175.726 705.6 175.27C705.132 174.61 704.52 173.458 703.764 171.814C703.512 171.25 703.164 170.794 702.72 170.446C702.288 170.098 701.862 169.924 701.442 169.924C700.854 169.924 700.38 169.792 700.02 169.528C699.672 169.252 699.498 168.88 699.498 168.412C699.498 167.404 700.098 166.9 701.298 166.9C702.294 166.9 703.194 167.068 703.998 167.404C704.814 167.74 705.474 168.226 705.978 168.862C706.758 169.87 707.4 171.052 707.904 172.408C708.108 172.972 708.318 173.404 708.534 173.704C708.75 173.992 708.966 174.148 709.182 174.172H710.298V168.592C710.298 168.1 710.448 167.704 710.748 167.404C711.06 167.092 711.474 166.936 711.99 166.936C712.446 166.936 712.818 167.092 713.106 167.404C713.394 167.716 713.526 168.112 713.502 168.592V174.172H714.636C714.852 174.148 715.062 173.998 715.266 173.722C715.482 173.434 715.704 172.996 715.932 172.408C716.148 171.796 716.424 171.196 716.76 170.608C717.096 170.008 717.48 169.432 717.912 168.88C718.428 168.256 719.094 167.77 719.91 167.422C720.738 167.074 721.626 166.9 722.574 166.9C723.75 166.9 724.338 167.404 724.338 168.412C724.338 169.42 723.714 169.924 722.466 169.924C721.998 169.924 721.542 170.092 721.098 170.428C720.666 170.764 720.324 171.214 720.072 171.778C719.34 173.374 718.716 174.526 718.2 175.234C719.232 175.726 720.006 176.368 720.522 177.16C721.038 177.94 721.41 178.858 721.638 179.914C721.77 180.418 721.89 180.802 721.998 181.066C722.106 181.318 722.31 181.444 722.61 181.444C723.102 181.444 723.51 181.588 723.834 181.876C724.17 182.164 724.338 182.524 724.338 182.956C724.338 183.544 724.14 183.94 723.744 184.144C723.36 184.36 722.898 184.468 722.358 184.468C721.626 184.468 720.996 184.33 720.468 184.054C719.952 183.79 719.55 183.4 719.262 182.884C718.938 182.344 718.662 181.63 718.434 180.742C718.218 179.854 717.846 179.044 717.318 178.312C716.634 177.34 715.362 176.794 713.502 176.674V182.74C713.502 183.244 713.352 183.658 713.052 183.982C712.764 184.306 712.374 184.468 711.882 184.468C711.426 184.468 711.048 184.306 710.748 183.982C710.448 183.658 710.298 183.244 710.298 182.74V176.674C709.314 176.734 708.516 176.902 707.904 177.178C707.304 177.442 706.83 177.772 706.482 178.168C706.038 178.66 705.726 179.218 705.546 179.842C705.378 180.466 705.222 181.084 705.078 181.696C704.946 182.308 704.718 182.836 704.394 183.28C704.142 183.64 703.776 183.928 703.296 184.144C702.828 184.36 702.186 184.468 701.37 184.468ZM727.565 187.528C726.557 187.528 726.053 186.916 726.053 185.692V184C726.053 182.092 726.941 181.156 728.717 181.192H729.653L728.033 181.912C730.661 177.88 731.957 172.972 731.921 167.188H743.261V181.192H744.233C745.841 181.192 746.645 182.128 746.645 184V185.692C746.645 186.916 746.141 187.528 745.133 187.528C744.125 187.528 743.621 186.916 743.621 185.692V184.216H729.077V185.692C729.077 186.916 728.573 187.528 727.565 187.528ZM731.939 181.192H740.129V170.212H735.197C735.053 174.136 733.967 177.796 731.939 181.192ZM758.723 184.216C756.419 184.216 754.583 184.012 753.215 183.604C751.859 183.184 750.881 182.494 750.281 181.534C749.693 180.562 749.399 179.248 749.399 177.592V173.812C749.399 172.156 749.693 170.848 750.281 169.888C750.881 168.916 751.859 168.226 753.215 167.818C754.583 167.398 756.419 167.188 758.723 167.188H759.767C762.071 167.188 763.901 167.398 765.257 167.818C766.613 168.238 767.585 168.934 768.173 169.906C768.761 170.866 769.055 172.168 769.055 173.812V177.592C769.055 179.236 768.761 180.544 768.173 181.516C767.585 182.476 766.613 183.166 765.257 183.586C763.901 184.006 762.071 184.216 759.767 184.216H758.723ZM758.723 181.192H759.767C761.567 181.192 762.911 181.108 763.799 180.94C764.699 180.76 765.293 180.406 765.581 179.878C765.881 179.338 766.031 178.54 766.031 177.484V173.92C766.031 172.852 765.881 172.054 765.581 171.526C765.293 170.998 764.699 170.65 763.799 170.482C762.911 170.302 761.567 170.212 759.767 170.212H758.723C756.911 170.212 755.555 170.302 754.655 170.482C753.755 170.65 753.155 170.998 752.855 171.526C752.567 172.054 752.423 172.852 752.423 173.92V177.484C752.423 178.54 752.567 179.338 752.855 179.878C753.155 180.406 753.755 180.76 754.655 180.94C755.555 181.108 756.911 181.192 758.723 181.192ZM775.04 184.468C774.032 184.468 773.528 183.892 773.528 182.74V168.7C773.528 167.524 774.008 166.936 774.968 166.936C775.556 166.936 776.072 167.242 776.516 167.854L783.176 177.178L789.872 167.854C790.304 167.242 790.808 166.936 791.384 166.936C792.368 166.936 792.86 167.524 792.86 168.7V182.74C792.86 183.892 792.356 184.468 791.348 184.468C790.34 184.468 789.836 183.856 789.836 182.632V172.156L784.346 179.968C784.106 180.304 783.74 180.472 783.248 180.472C783.02 180.472 782.792 180.436 782.564 180.364C782.348 180.292 782.174 180.16 782.042 179.968L776.552 172.156V182.632C776.552 183.856 776.048 184.468 775.04 184.468ZM801.817 191.596C800.869 191.596 800.083 191.434 799.459 191.11C798.847 190.798 798.391 190.312 798.091 189.652C797.791 188.992 797.641 188.164 797.641 187.168C797.641 186.52 797.767 186.022 798.019 185.674C798.283 185.326 798.661 185.152 799.153 185.152C799.657 185.152 800.035 185.302 800.287 185.602C800.539 185.902 800.665 186.34 800.665 186.916C800.665 187.588 800.755 188.032 800.935 188.248C801.127 188.464 801.505 188.572 802.069 188.572H813.193C813.673 188.572 813.973 188.506 814.093 188.374C814.213 188.242 814.273 187.9 814.273 187.348V182.632C812.773 183.688 810.673 184.216 807.973 184.216H806.929C804.637 184.216 802.807 184.006 801.439 183.586C800.083 183.166 799.111 182.476 798.523 181.516C797.935 180.544 797.641 179.236 797.641 177.592V168.664C797.641 167.512 798.145 166.936 799.153 166.936C800.161 166.936 800.665 167.512 800.665 168.664V177.484C800.665 178.54 800.809 179.338 801.097 179.878C801.397 180.406 801.991 180.76 802.879 180.94C803.779 181.108 805.129 181.192 806.929 181.192H807.973C810.085 181.192 811.663 180.736 812.707 179.824C813.751 178.9 814.273 177.508 814.273 175.648V168.664C814.273 167.512 814.777 166.936 815.785 166.936C816.793 166.936 817.297 167.512 817.297 168.664V186.772C817.297 188.524 817.009 189.766 816.433 190.498C815.857 191.23 814.861 191.596 813.445 191.596H801.817Z" fill="white"/>
</svg>
