<svg width="30" height="30" viewBox="0 0 30 30" fill="none" xmlns="http://www.w3.org/2000/svg">
<g id="phone">
<path id="Path 16" d="M15.926 23.0046L19.2799 19.6507C19.6225 19.3081 20.1616 19.2604 20.559 19.5376L25.414 22.9237C25.9246 23.2798 25.9892 24.0109 25.5491 24.4511L24.5709 25.4292C23.8606 26.1395 22.841 26.4462 21.8804 26.1526C19.4037 25.3956 14.4218 23.4734 10.3272 19.3788C6.2326 15.2842 4.31042 10.3023 3.55344 7.82559C3.25984 6.865 3.56653 5.84539 4.27679 5.13513L5.25497 4.15695C5.69514 3.71678 6.42619 3.78142 6.78229 4.292L10.1684 9.14699C10.4456 9.54446 10.3979 10.0835 10.0553 10.4262L6.70142 13.78" stroke="#092327" stroke-width="2" stroke-linecap="round"/>
</g>
</svg>
