<svg width="40" height="38" viewBox="0 0 40 38" fill="none" xmlns="http://www.w3.org/2000/svg">
<rect x="1.81544" y="1.365" width="36.27" height="35.27" rx="3.635" stroke="#E9EFF0" stroke-width="2.73"/>
<path d="M8.40436 18.5998L13.7059 20.5653L15.7726 27.1766C15.8625 27.6233 16.4016 27.7126 16.7611 27.4446L19.7263 25.0324C19.9959 24.7644 20.4452 24.7644 20.8046 25.0324L26.1062 28.8741C26.4656 29.1421 27.0048 28.9634 27.0946 28.5167L31.0483 9.75507C31.1382 9.30836 30.6889 8.86166 30.2396 9.04034L8.40436 17.4384C7.86521 17.6171 7.86521 18.4212 8.40436 18.5998ZM15.5031 19.5826L25.9265 13.2394C26.1062 13.15 26.2859 13.4181 26.1062 13.5074L17.5698 21.4588C17.3002 21.7268 17.0306 22.0841 17.0306 22.5309L16.7611 24.675C16.7611 24.9431 16.3118 25.0324 16.2219 24.675L15.1436 20.744C14.8741 20.2973 15.0538 19.7613 15.5031 19.5826Z" fill="#E9EFF0"/>
</svg>
