<svg width="39" height="38" viewBox="0 0 39 38" fill="none" xmlns="http://www.w3.org/2000/svg">
<rect x="1.365" y="1.365" width="36.27" height="35.27" rx="3.635" stroke="#092327" stroke-width="2.73"/>
<path d="M8.40331 18.5998L13.6911 20.5653L15.7525 27.1766C15.8421 27.6233 16.3798 27.7126 16.7383 27.4446L19.6959 25.0324C19.9648 24.7644 20.4129 24.7644 20.7714 25.0324L26.0592 28.8741C26.4177 29.1421 26.9554 28.9634 27.045 28.5167L30.9885 9.75507C31.0781 9.30836 30.63 8.86166 30.1819 9.04034L8.40331 17.4384C7.86556 17.6171 7.86556 18.4212 8.40331 18.5998ZM15.4836 19.5826L25.8799 13.2394C26.0592 13.15 26.2384 13.4181 26.0592 13.5074L17.5449 21.4588C17.2761 21.7268 17.0072 22.0841 17.0072 22.5309L16.7383 24.675C16.7383 24.9431 16.2902 25.0324 16.2006 24.675L15.1251 20.744C14.8562 20.2973 15.0355 19.7613 15.4836 19.5826Z" fill="#092327"/>
</svg>
