<svg width="40" height="38" viewBox="0 0 40 38" fill="none" xmlns="http://www.w3.org/2000/svg">
<rect x="1.65138" y="1.365" width="36.27" height="35.27" rx="3.635" stroke="#E9EFF0" stroke-width="2.73"/>
<path d="M34.2087 25.9046C34.2087 25.7845 34.0926 25.7845 34.0926 25.6644C33.6282 24.7034 32.5832 23.5021 31.19 22.1807C30.4934 21.5801 30.1451 21.0996 29.9129 20.8593C29.5646 20.3788 29.5646 20.0184 29.6807 19.5379C29.7968 19.1776 30.2612 18.5769 31.0739 17.4958C31.5383 16.8951 31.7705 16.5348 32.1188 16.1744C33.8603 13.7719 34.673 12.2102 34.4408 11.4894L34.3248 11.3693C34.2087 11.2492 34.0925 11.1291 33.8603 11.1291C33.6281 11.009 33.2798 11.009 32.9315 11.1291H28.5197C28.4036 11.1291 28.4036 11.1291 28.1714 11.1291C28.0553 11.1291 27.9392 11.1291 27.9392 11.1291H27.8231H27.707L27.5909 11.2492C27.4748 11.3693 27.4748 11.3693 27.4748 11.4894C27.0104 12.8108 26.4299 13.892 25.8494 15.0932C25.5011 15.6939 25.1528 16.2945 24.8045 16.775C24.4562 17.2555 24.2239 17.6159 23.9917 17.8562C23.7595 18.0964 23.5273 18.2165 23.4112 18.4568C23.2951 18.5769 23.0629 18.697 23.0629 18.5769C22.9468 18.5769 22.8307 18.5769 22.8307 18.4568C22.7146 18.3367 22.5985 18.2165 22.4824 18.0964C22.3663 17.9763 22.3663 17.736 22.2502 17.4958C22.2502 17.2555 22.2502 17.0153 22.2502 16.8951C22.2502 16.775 22.2502 16.4146 22.2502 16.1744C22.2502 15.814 22.2502 15.5738 22.2502 15.4536C22.2502 15.0932 22.2502 14.6127 22.2502 14.1322C22.2502 13.6517 22.2502 13.2913 22.2502 13.0511C22.2502 12.8108 22.2502 12.4505 22.2502 12.2102C22.2502 11.8498 22.2502 11.6096 22.2502 11.4894C22.2502 11.3693 22.2502 11.2022 22.2502 11.082C22.1341 10.9619 22.0696 11.0091 21.7993 11.0089C19.3359 11.0093 21.7993 11.0088 21.3411 11.0089C19.7275 11.0089 20.1486 11.0091 19.3359 11.0091C17.4783 11.0091 16.6774 11.0089 15.9558 11.0089C15.9558 11.0089 15.7265 11.0089 15.052 11.0089C14.8198 11.2492 14.8197 11.3693 14.9358 11.3693C15.5164 11.4895 15.9808 11.7297 16.213 12.0901L16.3291 12.3303C16.4452 12.4505 16.4452 12.6907 16.5613 13.0511C16.6774 13.4115 16.6774 13.7719 16.6774 14.2524C16.6774 14.9731 16.6774 15.6939 16.6774 16.1744C16.6774 16.775 16.5613 17.1354 16.5613 17.4958C16.5613 17.8562 16.4452 18.0964 16.3291 18.2165C16.213 18.4568 16.213 18.5769 16.0969 18.5769C16.0969 18.5769 16.0969 18.697 15.9808 18.697C15.8647 18.697 15.7486 18.8172 15.5164 18.8172C15.4003 18.8172 15.1681 18.697 15.052 18.5769C14.8198 18.4568 14.5876 18.2165 14.4714 17.9763C14.2392 17.736 14.007 17.3756 13.7748 16.8951C13.5426 16.4146 13.1943 15.9341 12.9621 15.2134L12.7299 14.7329C12.6138 14.4926 12.3816 14.0121 12.1494 13.4115C11.9172 12.8108 11.685 12.3303 11.4528 11.7297C11.3367 11.4895 11.2206 11.3693 11.1045 11.2492H10.9884C10.9884 11.2492 10.8723 11.1291 10.7562 11.1291C10.6401 11.1291 10.524 11.0089 10.4079 11.0089H6.22825C5.76385 11.0089 5.53165 11.1291 5.41555 11.2492L5.29944 11.3693C5.29944 11.3693 5.29944 11.4895 5.29944 11.6096C5.29944 11.7297 5.29945 11.8498 5.41555 12.0901C5.99605 13.5316 6.69266 14.9731 7.38926 16.4146C8.08587 17.736 8.78249 18.9373 9.24689 19.7782C9.8274 20.6191 10.2918 21.46 10.8723 22.1807C11.4528 22.9015 11.8011 23.382 11.9172 23.6222C12.1494 23.8625 12.2655 23.9826 12.3816 24.1027L12.7299 24.4631C12.9621 24.7034 13.3104 25.0638 13.7748 25.4241C14.2392 25.7845 14.8197 26.1449 15.4002 26.5053C15.9808 26.8656 16.6774 27.1059 17.374 27.3462C18.1867 27.5864 18.8833 27.7065 19.5799 27.5864H21.3214C21.6697 27.5864 21.9019 27.4663 22.1341 27.226L22.2502 27.1059C22.2502 26.9858 22.3663 26.9858 22.3663 26.8656C22.3663 26.7455 22.3663 26.6254 22.3663 26.3851C22.3663 25.9046 22.3663 25.5443 22.4824 25.1839C22.5985 24.8235 22.5985 24.5833 22.7146 24.343C22.8307 24.1027 22.9468 23.9826 23.0629 23.8625C23.179 23.7424 23.2952 23.6222 23.2952 23.6222H23.4112C23.6434 23.5021 23.9917 23.6222 24.2239 23.8625C24.5723 24.1027 24.9205 24.4631 25.1527 24.8235C25.3849 25.1839 25.7333 25.5443 26.1977 26.0248C26.6621 26.5053 27.0104 26.8656 27.2426 26.9858L27.5909 27.226C27.8231 27.3461 28.0553 27.4663 28.4036 27.5864C28.7519 27.7065 28.9841 27.7065 29.2163 27.7065L33.1638 27.5864C33.5121 27.5864 33.8604 27.4663 34.0926 27.3462C34.3248 27.226 34.4408 27.1059 34.4408 26.8656C34.4408 26.7455 34.4408 26.5053 34.4408 26.3851C34.2086 26.1449 34.2087 26.0248 34.2087 25.9046Z" fill="#E9EFF0"/>
</svg>
