<svg width="39" height="38" viewBox="0 0 39 38" fill="none" xmlns="http://www.w3.org/2000/svg">
<rect x="1.365" y="1.365" width="36.27" height="35.27" rx="3.635" stroke="#092327" stroke-width="2.73"/>
<path d="M33.8341 25.7367C33.8341 25.6165 33.7183 25.6165 33.7183 25.4964C33.2551 24.5354 32.2129 23.3341 30.8233 22.0128C30.1285 21.4121 29.7811 20.9316 29.5495 20.6914C29.2021 20.2108 29.2022 19.8505 29.318 19.37C29.4338 19.0096 29.8969 18.4089 30.7075 17.3278C31.1707 16.7272 31.4023 16.3668 31.7497 16.0064C33.4867 13.6039 34.2973 12.0422 34.0657 11.3215L33.9499 11.2014C33.8341 11.0812 33.7183 10.9611 33.4867 10.9611C33.2551 10.841 32.9077 10.841 32.5603 10.9611H28.16C28.0442 10.9611 28.0441 10.9611 27.8125 10.9611C27.6967 10.9611 27.581 10.9611 27.581 10.9611H27.4652H27.3493L27.2335 11.0812C27.1177 11.2014 27.1177 11.2013 27.1177 11.3215C26.6545 12.6429 26.0755 13.724 25.4965 14.9253C25.1491 15.5259 24.8018 16.1265 24.4544 16.6071C24.107 17.0876 23.8753 17.4479 23.6437 17.6882C23.4121 17.9284 23.1805 18.0486 23.0647 18.2888C22.9489 18.4089 22.7174 18.5291 22.7174 18.409C22.6016 18.409 22.4857 18.4089 22.4857 18.2888C22.3699 18.1687 22.2542 18.0486 22.1384 17.9284C22.0226 17.8083 22.0225 17.5681 21.9067 17.3278C21.9067 17.0875 21.9067 16.8473 21.9067 16.7272C21.9067 16.607 21.9067 16.2467 21.9067 16.0064C21.9067 15.646 21.9067 15.4058 21.9067 15.2857C21.9067 14.9253 21.9067 14.4448 21.9067 13.9643C21.9067 13.4838 21.9067 13.1234 21.9067 12.8831C21.9067 12.6429 21.9067 12.2825 21.9067 12.0422C21.9067 11.6819 21.9067 11.4416 21.9067 11.3215C21.9067 11.2013 21.9067 11.0342 21.9067 10.9141C21.7909 10.7939 21.7266 10.8412 21.457 10.841C19 10.8414 21.457 10.8408 21 10.841C19.3906 10.841 19.8106 10.8412 19 10.8412C17.1472 10.8412 16.3484 10.841 15.6287 10.841C15.6287 10.841 15.4 10.841 14.7272 10.841C14.4956 11.0812 14.4956 11.2014 14.6114 11.2014C15.1904 11.3215 15.6536 11.5617 15.8852 11.9221L16.001 12.1624C16.1168 12.2825 16.1168 12.5227 16.2326 12.8831C16.3484 13.2435 16.3484 13.6039 16.3484 14.0844C16.3484 14.8051 16.3484 15.5259 16.3484 16.0064C16.3484 16.6071 16.2326 16.9674 16.2326 17.3278C16.2326 17.6882 16.1168 17.9284 16.001 18.0486C15.8852 18.2888 15.8852 18.409 15.7694 18.409C15.7694 18.409 15.7694 18.5291 15.6536 18.5291C15.5378 18.5291 15.422 18.6492 15.1904 18.6492C15.0746 18.6492 14.843 18.5291 14.7272 18.409C14.4956 18.2888 14.264 18.0486 14.1482 17.8083C13.9166 17.5681 13.685 17.2077 13.4534 16.7272C13.2218 16.2467 12.8744 15.7662 12.6428 15.0454L12.4112 14.5649C12.2954 14.3247 12.0638 13.8441 11.8322 13.2435C11.6006 12.6429 11.369 12.1624 11.1374 11.5617C11.0216 11.3215 10.9058 11.2014 10.79 11.0812H10.6742C10.6742 11.0812 10.5584 10.9611 10.4426 10.9611C10.3268 10.9611 10.211 10.841 10.0952 10.841H5.9264C5.4632 10.841 5.23161 10.9611 5.11581 11.0812L5 11.2014C5 11.2014 5 11.3215 5 11.4416C5 11.5617 5.00001 11.6819 5.11581 11.9221C5.69481 13.3636 6.3896 14.8052 7.0844 16.2467C7.7792 17.5681 8.474 18.7693 8.9372 19.6102C9.5162 20.4511 9.97939 21.292 10.5584 22.0128C11.1374 22.7335 11.4848 23.214 11.6006 23.4543C11.8322 23.6945 11.948 23.8146 12.0638 23.9348L12.4112 24.2951C12.6428 24.5354 12.9902 24.8958 13.4534 25.2562C13.9166 25.6165 14.4956 25.9769 15.0746 26.3373C15.6536 26.6977 16.3484 26.9379 17.0432 27.1782C17.8538 27.4184 18.5486 27.5386 19.2434 27.4184H20.9804C21.3278 27.4184 21.5594 27.2983 21.791 27.058L21.9067 26.9379C21.9067 26.8178 22.0226 26.8178 22.0226 26.6977C22.0226 26.5775 22.0226 26.4574 22.0226 26.2172C22.0226 25.7367 22.0226 25.3763 22.1384 25.0159C22.2542 24.6555 22.2542 24.4153 22.37 24.175C22.4858 23.9348 22.6016 23.8146 22.7174 23.6945C22.8332 23.5744 22.949 23.4543 22.949 23.4543H23.0647C23.2963 23.3341 23.6438 23.4543 23.8754 23.6945C24.2228 23.9348 24.5701 24.2952 24.8017 24.6555C25.0333 25.0159 25.3808 25.3763 25.844 25.8568C26.3072 26.3373 26.6546 26.6977 26.8862 26.8178L27.2335 27.058C27.4651 27.1782 27.6968 27.2983 28.0442 27.4184C28.3916 27.5386 28.6231 27.5385 28.8547 27.5385L32.7919 27.4184C33.1393 27.4184 33.4867 27.2983 33.7183 27.1782C33.9499 27.0581 34.0657 26.9379 34.0657 26.6977C34.0657 26.5775 34.0657 26.3373 34.0657 26.2172C33.8341 25.9769 33.8341 25.8568 33.8341 25.7367Z" fill="#092327"/>
</svg>
