<svg width="41" height="38" viewBox="0 0 41 38" fill="none" xmlns="http://www.w3.org/2000/svg">
<g clip-path="url(#clip0_780_591)">
<path fill-rule="evenodd" clip-rule="evenodd" d="M20.4895 31.2143C19.7355 31.2143 19.1235 30.6063 19.1235 29.8571V28.5C19.1235 27.7508 19.7355 27.1428 20.4895 27.1428C21.2435 27.1428 21.8554 27.7508 21.8554 28.5V29.8571C21.8554 30.6063 21.2435 31.2143 20.4895 31.2143Z" fill="#E9EFF0"/>
<path fill-rule="evenodd" clip-rule="evenodd" d="M20.4895 25.1072C19.7355 25.1072 19.1235 24.4992 19.1235 23.7501V13.5715C19.1235 12.8224 19.7355 12.2144 20.4895 12.2144C21.2435 12.2144 21.8554 12.8224 21.8554 13.5715V23.7501C21.8554 24.4992 21.2435 25.1072 20.4895 25.1072Z" fill="#E9EFF0"/>
<path fill-rule="evenodd" clip-rule="evenodd" d="M40.0129 31.9987C41.4827 34.7103 39.5062 38 36.4054 38H4.57325C1.47253 38 -0.504085 34.7103 0.965683 31.9987L17.2725 1.90816C17.9104 0.732865 19.1452 0 20.4893 0C21.8334 0 23.0683 0.732865 23.7062 1.90816L40.0129 31.9987ZM36.4054 35.2857C37.4381 35.2857 38.0979 34.1891 37.6075 33.2853L21.3007 3.19604C21.1395 2.89883 20.8281 2.71429 20.4893 2.71429C20.1506 2.71429 19.8391 2.89883 19.678 3.19604L3.37119 33.2853C2.88081 34.1891 3.54058 35.2857 4.57325 35.2857H36.4054Z" fill="#E9EFF0"/>
</g>
<defs>
<clipPath id="clip0_780_591">
<rect width="40.9787" height="38" fill="white"/>
</clipPath>
</defs>
</svg>
