<svg width="39" height="38" viewBox="0 0 39 38" fill="none" xmlns="http://www.w3.org/2000/svg">
<rect x="1.365" y="1.365" width="36.27" height="35.27" rx="3.635" stroke="#092327" stroke-width="2.73"/>
<path d="M26.0732 11.9167C24.1916 10.0417 21.6829 9 19.0348 9C13.5296 9 9.06969 13.4444 9.06969 18.9306C9.06969 20.6667 9.55749 22.4028 10.3937 23.8611L9 29L14.2962 27.6111C15.7596 28.375 17.3624 28.7917 19.0348 28.7917C24.5401 28.7917 29 24.3472 29 18.8611C28.9303 16.2917 27.9547 13.7917 26.0732 11.9167ZM23.8432 22.4722C23.6341 23.0278 22.6585 23.5833 22.1707 23.6528C21.7526 23.7222 21.1951 23.7222 20.6376 23.5833C20.2892 23.4444 19.8014 23.3056 19.2439 23.0278C16.7352 21.9861 15.1324 19.4861 14.993 19.2778C14.8537 19.1389 13.9477 17.9583 13.9477 16.7083C13.9477 15.4583 14.5749 14.9028 14.784 14.625C14.993 14.3472 15.2718 14.3472 15.4808 14.3472C15.6202 14.3472 15.8293 14.3472 15.9686 14.3472C16.108 14.3472 16.3171 14.2778 16.5261 14.7639C16.7352 15.25 17.223 16.5 17.2927 16.5694C17.3624 16.7083 17.3624 16.8472 17.2927 16.9861C17.223 17.125 17.1533 17.2639 17.0139 17.4028C16.8746 17.5417 16.7352 17.75 16.6655 17.8194C16.5261 17.9583 16.3868 18.0972 16.5261 18.3056C16.6655 18.5833 17.1533 19.3472 17.9199 20.0417C18.8955 20.875 19.662 21.1528 19.9408 21.2917C20.2195 21.4306 20.3589 21.3611 20.4983 21.2222C20.6376 21.0833 21.1254 20.5278 21.2648 20.25C21.4042 19.9722 21.6132 20.0417 21.8223 20.1111C22.0314 20.1806 23.2857 20.8056 23.4948 20.9444C23.7735 21.0833 23.9129 21.1528 23.9826 21.2222C24.0523 21.4306 24.0523 21.9167 23.8432 22.4722Z" fill="#092327"/>
</svg>
