<svg width="40" height="38" viewBox="0 0 40 38" fill="none" xmlns="http://www.w3.org/2000/svg">
<rect x="1.9795" y="1.365" width="36.27" height="35.27" rx="3.635" stroke="#E9EFF0" stroke-width="2.73"/>
<path d="M26.7556 11.9167C24.8691 10.0417 22.3539 9 19.6989 9C14.1793 9 9.70781 13.4444 9.70781 18.9306C9.70781 20.6667 10.1969 22.4028 11.0353 23.8611L9.63794 29L14.9479 27.6111C16.4151 28.375 18.0221 28.7917 19.6989 28.7917C25.2185 28.7917 29.69 24.3472 29.69 18.8611C29.6202 16.2917 28.642 13.7917 26.7556 11.9167ZM24.5198 22.4722C24.3102 23.0278 23.332 23.5833 22.843 23.6528C22.4238 23.7222 21.8648 23.7222 21.3059 23.5833C20.9565 23.4444 20.4675 23.3056 19.9085 23.0278C17.3933 21.9861 15.7863 19.4861 15.6466 19.2778C15.5068 19.1389 14.5986 17.9583 14.5986 16.7083C14.5986 15.4583 15.2274 14.9028 15.437 14.625C15.6466 14.3472 15.926 14.3472 16.1357 14.3472C16.2754 14.3472 16.485 14.3472 16.6247 14.3472C16.7645 14.3472 16.9741 14.2778 17.1837 14.7639C17.3933 15.25 17.8823 16.5 17.9522 16.5694C18.0221 16.7083 18.0221 16.8472 17.9522 16.9861C17.8823 17.125 17.8125 17.2639 17.6727 17.4028C17.533 17.5417 17.3933 17.75 17.3234 17.8194C17.1837 17.9583 17.0439 18.0972 17.1837 18.3056C17.3234 18.5833 17.8125 19.3472 18.581 20.0417C19.5592 20.875 20.3277 21.1528 20.6072 21.2917C20.8867 21.4306 21.0264 21.3611 21.1661 21.2222C21.3059 21.0833 21.795 20.5278 21.9347 20.25C22.0744 19.9722 22.284 20.0417 22.4936 20.1111C22.7032 20.1806 23.9609 20.8056 24.1705 20.9444C24.4499 21.0833 24.5897 21.1528 24.6595 21.2222C24.7294 21.4306 24.7294 21.9167 24.5198 22.4722Z" fill="#E9EFF0"/>
</svg>
